<svg width="90" height="33" viewBox="0 0 90 33" fill="none" xmlns="http://www.w3.org/2000/svg">
<path d="M27.1636 20.2692C29.0504 20.9813 30.9971 21.531 32.9815 21.9121V5.18027C32.9833 4.50169 32.8484 3.82941 32.5846 3.20182C32.3209 2.57424 31.9334 2.00364 31.4443 1.52261C30.9552 1.04158 30.3741 0.659528 29.7341 0.398278C29.0941 0.137028 28.4078 0.00169329 27.7144 0L5.28695 0C4.59209 0.00042364 3.90412 0.134805 3.26234 0.395468C2.62056 0.656132 2.03753 1.03797 1.54657 1.51917C1.05562 2.00038 0.666338 2.57152 0.400976 3.19998C0.135614 3.82843 -0.000633421 4.50189 1.65231e-05 5.18189V27.0956C-0.00171812 27.7742 0.133145 28.4464 0.396906 29.074C0.660666 29.7016 1.04816 30.2722 1.53726 30.7532C2.02636 31.2343 2.60749 31.6163 3.24747 31.8776C3.88745 32.1388 4.57374 32.2742 5.26716 32.2759H27.6946C28.3895 32.2754 29.0774 32.141 29.7192 31.8804C30.361 31.6197 30.944 31.2379 31.435 30.7567C31.9259 30.2755 32.3152 29.7043 32.5806 29.0759C32.8459 28.4474 32.9822 27.774 32.9815 27.094V26.9165C32.9815 26.9165 24.4212 23.4274 20.0858 21.3731C17.1817 24.8266 13.4268 26.9181 9.54157 26.9181C2.96341 26.9181 0.740451 21.2956 3.85556 17.5807C4.81381 16.5597 6.08654 15.8729 7.48022 15.6247C10.2837 14.9502 14.7494 16.0443 18.9248 17.3951C19.7032 15.9814 20.3249 14.4902 20.7767 12.9458H7.89909V11.6645H14.5366V9.3955H6.46769V8.12545H14.5284V4.83977C14.5269 4.76566 14.5411 4.69205 14.57 4.62354C14.5989 4.55504 14.6419 4.4931 14.6964 4.44161C14.7509 4.39011 14.8156 4.35017 14.8866 4.32427C14.9576 4.29837 15.0332 4.28707 15.1088 4.29107H18.3625V8.12545H26.3226V9.3955H18.3625V11.6839H24.8598C24.2858 14.0683 23.3586 16.3577 22.1075 18.4795C24.1112 19.1832 25.8328 19.8287 27.1141 20.2789L27.1636 20.2692ZM7.63194 16.706C6.52706 16.8028 5.46835 17.1901 4.56796 17.8243C2.16031 19.8819 3.61644 23.6437 8.45978 23.6437C11.3143 23.6437 14.1128 21.8556 16.349 19.0347C13.2075 17.4984 10.5244 16.4365 7.63194 16.706Z" fill="#3379F6"/>
<path d="M87.3631 22.3769L85.9548 25.3753L84.5283 22.3769H83.148L85.3083 26.4743V29.3517H86.5929V26.4743L88.7532 22.3591H87.3631V22.3769ZM77.0778 24.1843L78.0293 27.0795H76.1263L77.0778 24.1827V24.1843ZM78.3624 27.9735L78.8373 29.3888H80.1698L77.5725 22.3769H76.5336L73.9181 29.3888H75.2506L75.7536 27.9735H78.3624ZM68.4465 25.7465H67.0382V23.3451H68.4465C68.7602 23.3598 69.0552 23.4953 69.2672 23.7221C69.4791 23.9488 69.5908 24.2484 69.5778 24.5555C69.5896 24.7078 69.5691 24.861 69.5176 25.0052C69.4661 25.1494 69.3846 25.2817 69.2784 25.3937C69.1722 25.5057 69.0435 25.595 68.9003 25.6559C68.7571 25.7169 68.6027 25.7483 68.4465 25.7481V25.7465ZM68.5125 22.3769H65.7536V29.3888H67.0382V26.6889H68.5125C68.8142 26.7087 69.1169 26.6677 69.4018 26.5683C69.6866 26.4689 69.9476 26.3133 70.1684 26.1111C70.3893 25.909 70.5654 25.6646 70.6858 25.3931C70.8062 25.1216 70.8683 24.8288 70.8683 24.5329C70.8683 24.2369 70.8062 23.9442 70.6858 23.6727C70.5654 23.4012 70.3893 23.1568 70.1684 22.9546C69.9476 22.7525 69.6866 22.5969 69.4018 22.4975C69.1169 22.3981 68.8142 22.3571 68.5125 22.3769ZM59.2826 29.3888H60.5672V22.3769H59.281V29.3888H59.2826ZM50.2621 22.3769V29.3888H54.5827V28.4576H51.5468V22.3769H50.2605H50.2621ZM42.9534 24.1843L43.905 27.0795H41.9261L42.9534 24.1827V24.1843ZM44.2381 27.9735L44.713 29.3888H46.0455L43.4284 22.3769H42.401L39.7839 29.3888H41.1164L41.621 27.9735H44.2381ZM53.2866 8.69675H47.7786V6.7602H54.1622V5.54985H47.777V3.10011H44.9241C44.8491 3.10002 44.7749 3.11486 44.706 3.14373C44.6371 3.17259 44.5749 3.21489 44.5232 3.26803C44.4715 3.32117 44.4314 3.38406 44.4054 3.45285C44.3793 3.52164 44.3678 3.5949 44.3717 3.66817V5.53049H38.0606V6.74083H44.3881V8.69675H39.0122V9.90709H49.6784C48.9922 11.7765 47.7698 13.4126 46.1576 14.6194C44.7841 13.6756 43.6005 12.4917 42.6665 11.1271H39.812C40.973 13.0251 42.5294 14.6626 44.3799 15.933C42.3776 17.1759 40.2057 18.1354 37.9287 18.783V20.216C40.8346 19.6039 43.6249 18.5514 46.1988 17.0965C48.7372 18.5258 51.4789 19.5771 54.3337 20.216V18.8572C52.1318 18.0891 50.0174 17.0994 48.0244 15.9039C50.5545 14.1469 52.4078 11.6086 53.2866 8.69675ZM71.1395 3.32282H68.2849V6.26638H61.2137V7.45897H68.275V18.0374C68.2625 18.1517 68.2103 18.2585 68.1272 18.3398C68.0441 18.4211 67.9351 18.4722 67.8182 18.4844H66.3621V19.6947H70.0824C70.3697 19.6787 70.6404 19.558 70.8412 19.3564C71.0421 19.1548 71.1585 18.8869 71.1675 18.6054V7.42992H72.3185V6.26799H71.1395V3.32282ZM65.1055 9.44393C65.0546 9.33655 64.9723 9.24638 64.8689 9.18489C64.7655 9.1234 64.6458 9.09336 64.525 9.09858H62.147L64.0501 14.8437H66.9046L65.1912 9.44393H65.1055ZM89.9999 19.5011L88.9907 16.1573C88.958 16.0509 88.8914 15.9575 88.8006 15.8907C88.7099 15.8239 88.5996 15.7873 88.4861 15.7861H85.8311L86.5929 18.365H83.4531V13.3816H89.6091V12.189H83.4712V9.86029H89.6289V8.66931H74.2216V9.86029H80.4073V12.189H74.2232V13.3816H80.4073V18.3634H74.2232V19.556H89.9999V19.4995V19.5011ZM58.0458 3.19371L54.7526 10.8302H57.2658V19.9562H60.0247V7.84951H58.9973L61.0817 3.19371H58.0458ZM77.467 5.84679H86.4313V7.58H89.647V5.50305C89.6497 5.2847 89.5643 5.07413 89.4093 4.91703C89.2543 4.75992 89.0423 4.66896 88.8192 4.66388H83.6427V3.02588H80.3034V4.65581H74.2991V7.58H77.5148V5.84679H77.467Z" fill="black"/>
</svg>
