<svg width="70" height="70" viewBox="0 0 70 70" fill="none" xmlns="http://www.w3.org/2000/svg">
<path d="M40.8653 3.32422C38.8282 3.36523 37.3653 3.76172 36.3946 4.47266L23.0919 11.5957L15.6954 21.6568C14.1368 24.0631 15.2442 28.7115 20.1114 25.7311L25.4434 18.7037C32.211 12.8672 46.0196 15.5455 39.4708 27.2623C36.2579 34.0436 37.7618 37.3522 41.9044 38.7467L43.7911 32.4029C47.0587 25.0475 53.1563 23.7213 52.9102 17.7877L67.5665 18.8404L67.4298 3.51562L40.8653 3.32422ZM33.4688 17.4596C31.0899 17.4186 28.752 18.4029 27.0567 19.8248L21.711 26.8522C23.1739 28.0143 24.6505 27.3854 26.1133 25.9772C27.836 26.8522 29.1758 25.4986 30.2696 22.7916C30.7208 20.9459 31.3907 19.6471 33.4688 17.4596ZM22.586 30.5846C22.5313 30.5846 22.463 30.5846 22.4083 30.5982C21.9571 30.6939 21.4239 31.1725 21.0684 32.2662C20.6993 33.36 20.6172 34.9186 20.9454 36.5865C21.2735 38.2408 21.9571 39.649 22.7227 40.524C23.461 41.3854 24.1446 41.6314 24.5958 41.5357C25.0606 41.4537 25.5801 40.9615 25.9356 39.8815C26.3047 38.7877 26.4005 37.2154 26.0723 35.5611C25.7305 33.8932 25.0469 32.485 24.295 31.6236C23.6387 30.858 23.0372 30.5846 22.586 30.5846ZM33.879 45.1861C32.7989 45.1998 31.4454 45.5416 30.1192 46.1842C28.6016 46.9361 27.4122 47.9752 26.7696 48.9322C26.127 49.8756 26.0723 50.5865 26.2774 51.0104C26.4825 51.4205 27.084 51.817 28.2325 51.8717C29.3809 51.94 30.9258 51.6256 32.4434 50.8736C33.961 50.1217 35.1504 49.0963 35.793 48.1393C36.4356 47.1959 36.4903 46.4713 36.2852 46.0611C36.0801 45.6373 35.4786 45.2545 34.3301 45.1998C34.1797 45.1861 34.043 45.1861 33.879 45.1861ZM20.5352 58.2565C19.8926 58.2701 19.3047 58.3658 18.7852 58.5162C17.6231 58.858 16.9532 59.4732 16.7344 60.1979C16.502 60.9361 16.7344 61.8111 17.5137 62.7545C18.3067 63.6842 19.6329 64.5729 21.2735 65.065C22.9005 65.5572 24.4864 65.5436 25.6622 65.1881C26.838 64.8463 27.5079 64.2311 27.7266 63.5065C27.9454 62.7682 27.7266 61.8932 26.9337 60.9498C26.1544 60.0201 24.8282 59.1315 23.1876 58.6393C22.2579 58.3658 21.3555 58.2428 20.5352 58.2565Z" fill="black"/>
</svg>
