<svg width="95" height="37" viewBox="0 0 95 37" fill="none" xmlns="http://www.w3.org/2000/svg">
<g clip-path="url(#clip0_91_32750)">
<path d="M91.4689 9.78852C91.0692 9.99 90.3579 10.3777 89.5462 10.5776C89.11 10.3502 88.6099 10.0907 88.0111 9.93352L87.2055 10.7791C88.0704 11.0264 88.5081 11.1989 88.9686 11.4049L86.2768 11.3912V18.7054H87.3134V16.3823H89.2787V18.7054H90.3183V16.3823H92.279V18.7054H93.3597V11.3698L90.8305 11.3912C90.715 11.2874 90.557 11.2172 90.5722 11.2294C91.4917 10.8875 92.4766 10.4143 93.4418 9.65878V8.75977L93.4266 8.76892H85.9136V9.68167H91.6711L91.4689 9.78547V9.78852ZM89.2787 15.3826H87.3134V14.3874H89.2787V15.3826ZM89.2665 13.3769L87.3134 13.3586V12.3848H89.2787L89.2665 13.3754V13.3769ZM92.2517 15.3826H90.332V14.3874H92.2517V15.3826ZM92.2623 12.3772V13.3769H90.3168V12.3772H92.2623Z" fill="#221E1F"/>
<path d="M53.1378 20.0508L54.1698 20.6522C56.6457 16.3556 57.012 12.7519 57.012 10.9844H55.825C55.825 12.6328 55.4739 15.9984 53.1362 20.0493L53.1378 20.0508Z" fill="#221E1F"/>
<path d="M62.8408 8.50934H56.3066V9.70141H61.6674C61.8255 12.0596 62.8195 16.9393 64.9581 20.6529L65.9886 20.0515C63.7634 16.1884 62.8423 11.0156 62.8423 9.10308V8.50781L62.8408 8.50934Z" fill="#221E1F"/>
<path d="M70.383 10.5518L68.5348 8.69727L67.8037 9.43449L69.6535 11.289L70.383 10.5518Z" fill="#221E1F"/>
<path d="M75.8089 19.3603V17.9149H79.6285V16.8754H75.8089V16.1825H78.5053V15.14H75.8089V14.4089H78.9187V13.3694H76.8622L77.6906 12.0751H79.4415V11.0311H75.8074V10.3351H78.902V9.29716H75.8074V8.13867H74.7678V9.29716H71.6671V10.3351H74.7678V11.0311H71.1002V12.0751H72.6809L73.5153 13.3694H71.4528V14.4089H74.7678V15.14H72.0699V16.1825H74.7678V16.8754H70.9877V17.9149H74.7678V19.3786L74.3939 19.3832C72.997 19.3908 71.7583 19.2092 70.5363 18.4308V13.3664H67.3931V14.3936H69.5118V17.9912L67.5907 19.9251L68.3126 20.6547L69.7915 19.1726L69.7702 19.2107C71.3814 20.3082 73.4272 20.4257 75.6372 20.4257H79.5464L80.0875 19.2245L78.0523 19.3374L75.8089 19.3603ZM73.9196 12.0736H76.4564L75.622 13.3679H74.7495L73.9181 12.0736H73.9196Z" fill="#221E1F"/>
<path d="M84.971 10.5518L83.1227 8.69727L82.3901 9.43449L84.2414 11.289L84.971 10.5518Z" fill="#221E1F"/>
<path d="M92.6345 19.3382L88.9882 19.384C87.5823 19.3916 86.3481 19.21 85.1261 18.4316V13.3672H81.9844V14.3944H84.1047V17.992L82.1759 19.9259L82.9039 20.6555L84.3783 19.1734L84.3585 19.2115C85.9711 20.309 88.0109 20.4265 90.2193 20.4265H94.1286L94.6667 19.2253L92.6345 19.3382Z" fill="#221E1F"/>
<path d="M44.1032 23.2154C44.091 23.1971 44.0758 23.1711 44.0515 23.1574C43.9436 23.0429 43.8281 22.9437 43.7095 22.846C43.6806 22.8185 43.6578 22.8017 43.6381 22.7758C42.7656 22.0737 41.6105 21.6387 40.1605 21.6387C38.7105 21.6387 37.5553 22.0737 36.6829 22.7758C36.6586 22.8017 36.6327 22.8185 36.6099 22.846C36.4944 22.9422 36.3743 23.0429 36.271 23.1574C36.2482 23.1711 36.2299 23.1971 36.2117 23.2154C35.0702 24.4013 34.5337 26.1124 34.5337 27.8173C34.5337 29.5222 35.0702 31.2393 36.2147 32.4253C36.2345 32.4482 36.2482 32.465 36.2694 32.4879C36.3728 32.5963 36.4914 32.7031 36.6084 32.7993C36.6312 32.8176 36.657 32.842 36.6813 32.8603C37.5538 33.567 38.7074 33.9959 40.1589 33.9959C41.6105 33.9959 42.7641 33.567 43.6365 32.8603C43.6563 32.842 43.6791 32.8176 43.708 32.7993C43.8265 32.7031 43.942 32.5978 44.05 32.4879C44.0728 32.465 44.088 32.4482 44.1016 32.4253C45.2492 31.2393 45.7796 29.5237 45.7796 27.8173C45.7796 26.1108 45.2477 24.4013 44.1016 23.2154H44.1032ZM40.1605 32.7077C38.8412 32.7077 37.759 32.1765 37.0294 31.1585C36.4093 30.2945 36.0703 29.1071 36.0703 27.8173C36.0703 26.5275 36.4093 25.3477 37.0294 24.4822C37.759 23.4703 38.8412 22.9345 40.1605 22.9345C41.4798 22.9345 42.562 23.4703 43.2885 24.4822C43.9117 25.3477 44.2491 26.5336 44.2491 27.8173C44.2491 29.1009 43.9117 30.2945 43.2885 31.1585C42.562 32.175 41.4798 32.7077 40.1605 32.7077Z" fill="#221E1F"/>
<path d="M50.6692 32.7059C49.8499 32.7059 49.1842 32.3686 48.7434 31.7229C48.371 31.175 48.1598 30.4042 48.1598 29.5586C48.1598 28.3039 48.5109 26.196 50.8318 26.196C51.9824 26.196 52.7363 26.8005 52.9582 27.901H54.3793C54.1893 26.051 52.8548 24.9902 50.7224 24.9902C48.2464 24.9902 46.7158 26.7394 46.7158 29.5601C46.7158 32.3808 48.2342 33.9178 50.6874 33.9178C52.7758 33.9178 54.1027 32.7471 54.4264 30.6224H53.025C52.8351 31.9458 51.9778 32.7089 50.6676 32.7089L50.6692 32.7059Z" fill="#221E1F"/>
<path d="M57.6138 22.6207H56.2459V25.1849H54.7974V26.3953H56.2459V31.8581C56.2459 33.4577 56.8401 33.7172 58.2598 33.7172H59.3146V32.5068H58.6884C57.7962 32.5068 57.6153 32.374 57.6153 31.7253V26.3938H59.3146V25.1834H57.6153V22.6191L57.6138 22.6207Z" fill="#221E1F"/>
<path d="M60.1079 29.4624C60.1079 32.1686 61.7327 33.9163 64.233 33.9163C66.7333 33.9163 68.3566 32.1686 68.3566 29.4624C68.3566 26.7562 66.7363 24.9902 64.233 24.9902C61.7297 24.9902 60.1079 26.7455 60.1079 29.4624ZM66.9035 29.4624C66.9035 31.4054 65.8274 32.7074 64.233 32.7074C62.6386 32.7074 61.561 31.4054 61.561 29.4624C61.561 27.5194 62.631 26.196 64.233 26.196C65.835 26.196 66.9035 27.5056 66.9035 29.4624Z" fill="#221E1F"/>
<path d="M71.1929 26.336L71.1899 26.3498H71.1261V25.1867H69.7627V36.999H71.1261V32.5742H71.1899L71.1929 32.5833C71.8009 33.5663 73.0093 33.9158 73.9288 33.9158C76.2862 33.9158 77.8062 32.1743 77.8062 29.4742C77.8062 27.4045 76.7832 24.9883 73.8954 24.9883C72.6019 24.9883 71.6094 25.4798 71.1914 26.3345L71.1929 26.336ZM76.3577 29.378C76.3577 30.0267 76.2589 30.9471 75.7938 31.6675C75.353 32.359 74.6721 32.707 73.7844 32.707C72.8968 32.707 72.1779 32.3727 71.7036 31.7118C71.2963 31.1425 71.079 30.3579 71.079 29.4452C71.079 27.8715 71.7675 26.1971 73.7008 26.1971C75.6342 26.1971 76.3592 27.7967 76.3592 29.3796L76.3577 29.378Z" fill="#221E1F"/>
<path d="M80.533 30.9643V25.1855H79.165V30.7979C79.165 31.7977 79.3702 32.5333 79.7852 33.0431C80.2655 33.6308 81.0194 33.9147 82.0818 33.9147C83.3372 33.9147 84.2659 33.3927 84.842 32.367L84.8465 32.3578H84.9043V33.7178H86.1917V25.1855H84.8222V30.0042C84.8222 31.6954 83.8723 32.7058 82.2809 32.7058C81.2185 32.7058 80.5345 32.0205 80.5345 30.9643H80.533Z" fill="#221E1F"/>
<path d="M93.8047 29.5226C93.2788 29.1578 92.5766 28.9655 91.8941 28.8174C91.7133 28.7671 91.5233 28.7289 91.3439 28.6846C90.1857 28.4297 89.0929 28.1932 89.0929 27.3064C89.0929 26.3036 90.3742 26.1937 90.9229 26.1937C91.4716 26.1937 92.7909 26.3341 92.917 27.6345H94.2835C94.1831 25.8502 93.0432 24.9863 90.8119 24.9863C90.0125 24.9863 89.2312 25.1924 88.6734 25.5557C87.997 25.9907 87.6429 26.6256 87.6429 27.4025C87.6429 29.0372 89.0731 29.5012 90.4198 29.805C90.5505 29.8309 90.6858 29.8676 90.8165 29.8935C92.0522 30.1591 93.218 30.4109 93.218 31.4107C93.218 32.4791 92.0856 32.7035 91.1418 32.7035C90.3012 32.7035 88.8953 32.4898 88.833 31.0505H87.459C87.5654 33.5415 89.7602 33.9139 91.0551 33.9139C91.9048 33.9139 94.6665 33.7216 94.6665 31.2306C94.6665 30.4812 94.3853 29.9256 93.8047 29.5211V29.5226Z" fill="#221E1F"/>
<path d="M5.44824 31.1602C5.45552 31.1602 5.46279 31.163 5.47007 31.1645C5.46425 31.163 5.45697 31.1616 5.44824 31.1602Z" fill="#3758A6"/>
<path d="M5.49365 31.1719C5.49365 31.1719 5.50675 31.1748 5.51403 31.1777C5.50675 31.1762 5.49947 31.1762 5.49365 31.1719Z" fill="#3758A6"/>
<path d="M5.25684 31.1055C5.27204 31.1085 5.28571 31.1131 5.29939 31.1192C5.28571 31.1116 5.27204 31.1085 5.25684 31.1055Z" fill="#3758A6"/>
<path d="M5.31299 31.123C5.32211 31.1246 5.33123 31.1292 5.34187 31.1307C5.33123 31.1307 5.32211 31.1261 5.31299 31.123Z" fill="#3758A6"/>
<path d="M5.3584 31.1367C5.36752 31.1382 5.37664 31.1398 5.38424 31.1443C5.37664 31.1413 5.36904 31.1398 5.3584 31.1367Z" fill="#3758A6"/>
<path d="M5.4043 31.1465C5.41342 31.1495 5.42102 31.1541 5.42862 31.1556C5.42102 31.1556 5.41494 31.1511 5.4043 31.1465Z" fill="#3758A6"/>
<path d="M5.54102 31.1855C5.54102 31.1855 5.55266 31.1899 5.55848 31.1899C5.55266 31.1899 5.54684 31.1884 5.54102 31.1855Z" fill="#3758A6"/>
<path d="M11.1724 31.2139C11.2134 31.2062 11.2544 31.1971 11.2985 31.1895C11.256 31.1971 11.2134 31.2078 11.1724 31.2139Z" fill="#3758A6"/>
<path d="M5.96484 31.2852L5.96669 31.287C5.96669 31.287 5.96669 31.2852 5.96484 31.2852Z" fill="#3758A6"/>
<path d="M5.58643 31.1973C5.58643 31.1973 5.59807 31.2002 5.60389 31.2002C5.59807 31.2002 5.59225 31.2002 5.58643 31.1973Z" fill="#3758A6"/>
<path d="M11.4214 31.1621C11.4214 31.1621 11.4214 31.1636 11.4199 31.1636C11.4214 31.1636 11.4214 31.1621 11.4245 31.1621H11.4214Z" fill="#3758A6"/>
<path d="M5.63232 31.2109C5.63232 31.2109 5.64397 31.2138 5.64688 31.2138C5.64397 31.2138 5.63815 31.2124 5.63232 31.2109Z" fill="#3758A6"/>
<path d="M32.854 11.0095C32.854 11.0095 32.8616 11.008 32.8661 11.008C32.8813 11.008 32.895 11.0064 32.9102 11.0049C32.9634 11.0003 33.0196 10.9942 33.0774 10.9896C33.082 10.9896 33.0911 10.9881 33.0972 10.9881C33.2005 10.9774 33.3084 10.9683 33.427 10.9576C33.4483 10.9545 33.4741 10.9515 33.4969 10.9515C34.38 10.8691 35.2114 10.7637 36.0048 10.6432H36.0139L36.0169 10.6416C36.2617 9.84336 36.4927 9.15345 36.8103 8.48644C38.8957 4.09211 41.6528 2.08803 43.6789 1.37675C45.0833 0.876112 47.769 0.581528 48.6232 1.75681C48.2812 1.12033 47.6626 0.612055 47.1018 0.315945C47.0516 0.289997 47.003 0.270155 46.9513 0.245734L46.9407 0.239628C44.8432 -0.228958 42.4523 0.0595202 40.8914 0.549475C39.2589 1.09896 37.3773 2.04376 35.4606 3.60215C35.3208 3.71205 35.1855 3.82805 35.0639 3.94253C35.0427 3.95016 35.029 3.96848 35.0138 3.98374C34.8892 4.09211 34.763 4.20048 34.649 4.31343C34.6444 4.31953 34.6384 4.32106 34.6292 4.32869C34.38 4.56527 34.1368 4.80796 33.9134 5.05065C33.8921 5.06286 33.8784 5.07813 33.8693 5.09186C33.7674 5.20023 33.6687 5.30708 33.5729 5.41697C33.5607 5.42918 33.5471 5.44445 33.5303 5.45818C33.3191 5.7024 33.1093 5.94509 32.9193 6.18777C32.9056 6.19999 32.898 6.2183 32.8798 6.23204C32.7993 6.3343 32.7202 6.43809 32.6412 6.54494C32.6229 6.56631 32.6047 6.59225 32.588 6.61362C32.5105 6.72505 32.4269 6.83647 32.3448 6.94942C32.3433 6.95858 32.3387 6.96468 32.3326 6.96773C32.2475 7.08832 32.167 7.21042 32.0803 7.33253C32.0682 7.34779 32.059 7.36611 32.0408 7.3829C31.9785 7.48974 31.9177 7.5859 31.8554 7.68511C31.8311 7.71564 31.8174 7.74464 31.7946 7.77822C31.7307 7.86827 31.6806 7.96291 31.6198 8.05449C31.6107 8.08196 31.5894 8.10028 31.5757 8.13081C31.5058 8.24223 31.4359 8.36433 31.369 8.47576C31.366 8.48949 31.3538 8.50628 31.3447 8.52307C31.29 8.62229 31.2352 8.71997 31.1836 8.81918C31.1638 8.85582 31.1486 8.89092 31.1243 8.9245C31.0863 9.00692 31.0377 9.08477 30.9966 9.16872C30.9814 9.20382 30.9647 9.23282 30.9465 9.2664C30.8933 9.38088 30.834 9.48925 30.7777 9.59762C30.6379 9.87541 30.4753 10.231 30.3005 10.6203C30.2123 10.8385 30.1257 11.0537 30.0391 11.2674C31.2428 11.1789 31.4222 11.153 32.854 11.0141V11.0095Z" fill="#26B67C"/>
<path d="M50.6446 2.75302C50.4212 2.35617 50.1506 2.00664 49.8542 1.69984C49.1262 0.988568 48.1793 0.539824 47.1472 0.284925H47.1427C47.1427 0.284925 47.1396 0.281872 47.1381 0.281872C47.0925 0.272714 47.0226 0.257451 46.9801 0.246767C46.9801 0.246767 46.9795 0.246258 46.9785 0.24524C46.9664 0.24524 46.9573 0.242188 46.9497 0.242188H46.9421L46.9527 0.246767C47.0044 0.269662 47.053 0.29103 47.1032 0.316978C47.9346 0.753511 48.883 1.64947 48.8845 2.74691C48.8769 2.89039 48.8556 3.04455 48.8176 3.20787C48.6915 3.74361 48.4574 4.29157 48.1139 4.838C47.6671 5.53553 47.0378 6.22849 46.2049 6.87871C44.3187 8.36537 41.408 9.65207 37.2951 10.4229C36.8756 10.5022 36.4591 10.5725 36.0183 10.6427C36.0183 10.6427 36.0168 10.6427 36.0153 10.6442H36.0062C35.2143 10.7648 34.3814 10.8701 33.4983 10.9525C31.4509 11.1433 31.4023 11.1662 30.0328 11.2654C30.0344 11.2608 30.0344 11.2578 30.0389 11.2578H30.0085C29.8337 11.27 29.6301 11.2914 29.396 11.3051C27.5386 11.4379 20.591 11.0578 18.6577 11.0578C16.0586 11.0578 13.1632 11.386 10.4592 12.2514C7.38894 13.2176 4.55276 14.8767 2.66501 17.5051C1.81081 18.6834 1.07668 20.2571 0.800053 21.7147C0.517346 23.2212 0.713417 24.7384 1.22867 26.1732C1.28795 26.3395 1.35787 26.4998 1.43538 26.6555C2.02816 28.0246 3.11186 29.6578 5.11969 31.0559L5.22457 31.0956C5.23825 31.0987 5.2504 31.1048 5.26104 31.1078C5.27624 31.1109 5.28992 31.1155 5.3036 31.1216C5.30664 31.1216 5.31272 31.1216 5.31728 31.1246C5.3264 31.1261 5.33552 31.1307 5.34616 31.1322C5.35072 31.1338 5.3568 31.1353 5.36288 31.1399C5.372 31.1414 5.38112 31.1429 5.38872 31.1475C5.3948 31.1475 5.4024 31.149 5.40848 31.1506C5.4176 31.1536 5.4252 31.1582 5.4328 31.1597C5.44192 31.1612 5.448 31.1628 5.45407 31.1658C5.46167 31.1658 5.46927 31.1689 5.47687 31.1704C5.48599 31.1719 5.49359 31.1765 5.50119 31.1765C5.50727 31.1796 5.51487 31.1796 5.52247 31.1826C5.53007 31.1841 5.53767 31.1887 5.54831 31.1902C5.55287 31.1933 5.56047 31.1948 5.56655 31.1948C5.57567 31.1979 5.58631 31.2009 5.59391 31.2025C5.59999 31.204 5.60607 31.2055 5.61215 31.2055C5.62127 31.2116 5.63039 31.2131 5.64103 31.2147C5.64711 31.2147 5.65319 31.2177 5.65623 31.2177C5.66687 31.2177 5.68054 31.2223 5.68966 31.2284H5.69878C5.73982 31.2391 5.78086 31.2498 5.82494 31.2589C5.87206 31.2711 5.92373 31.2818 5.97237 31.291C5.97389 31.291 5.97389 31.2925 5.97389 31.2925C5.98909 31.2956 6.00581 31.3001 6.02101 31.3032H6.02253C6.04077 31.3063 6.05597 31.3078 6.07117 31.3124H6.07421C6.09245 31.3185 6.10612 31.32 6.12284 31.323H6.12436C6.1426 31.3261 6.1578 31.3291 6.17452 31.3322C6.20188 31.3398 6.22772 31.3429 6.25508 31.3475C6.2642 31.3475 6.27332 31.3536 6.28548 31.3536C6.30372 31.3566 6.32044 31.3612 6.33715 31.3612C6.34931 31.3627 6.36147 31.3658 6.37515 31.3673C6.39035 31.3704 6.40707 31.3719 6.42379 31.3765C6.43747 31.378 6.44811 31.3795 6.46331 31.3826C6.47851 31.3826 6.49371 31.3856 6.51043 31.3902C6.52259 31.3902 6.53474 31.3933 6.54994 31.3978C6.56514 31.3978 6.58338 31.4009 6.6001 31.4024C6.61226 31.4039 6.62594 31.4085 6.63962 31.4085C6.65634 31.4116 6.67306 31.4131 6.6913 31.4146C6.70346 31.4161 6.71714 31.4177 6.72778 31.4207C6.74449 31.4223 6.76577 31.4253 6.78401 31.4268C6.79617 31.4284 6.80681 31.4284 6.82049 31.4299C6.84937 31.4329 6.87673 31.436 6.90561 31.439H6.91017C6.93905 31.4421 6.9664 31.4467 6.99528 31.4497C7.0272 31.4513 7.06064 31.4528 7.09104 31.4574C7.11536 31.4604 7.13816 31.4619 7.16096 31.4635H7.18375C7.20199 31.465 7.22175 31.4665 7.23999 31.4696C8.72344 31.6085 10.0762 31.4482 11.1751 31.2223C11.2161 31.2147 11.2572 31.2055 11.3012 31.1979C11.3423 31.1887 11.3803 31.1826 11.4213 31.1735C11.4228 31.1735 11.4228 31.1719 11.4228 31.1719C11.2161 31.2131 10.789 31.2513 10.3741 31.262C10.2555 31.2696 10.137 31.2711 10.0184 31.2711C9.90899 31.2696 9.80411 31.2666 9.70988 31.2605C7.70053 31.1582 6.16692 30.2164 5.24584 28.7374C4.91602 28.162 4.65307 27.5102 4.48588 26.7807C4.48588 26.7776 4.48132 26.7776 4.48132 26.7761C4.46004 26.6723 4.44332 26.567 4.42204 26.4647C4.40988 26.4326 4.40988 26.3975 4.4038 26.3624C4.38708 26.2678 4.37037 26.1701 4.35517 26.0755C4.35213 26.0465 4.34757 26.0236 4.34605 25.9915C4.30045 25.6298 4.27005 25.2513 4.27005 24.8544C4.27613 23.151 4.80355 21.1149 6.51955 19.0223C8.46049 16.6656 10.9486 15.1164 13.5279 14.1426C16.4584 13.036 19.5043 12.6651 21.9955 12.6773C22.0046 12.6773 22.0076 12.6803 22.0183 12.6803C22.1824 12.6803 22.3496 12.6803 22.5183 12.6849C22.9956 12.6971 23.45 12.7215 23.8771 12.7582C25.1326 12.8726 26.2421 13.0299 27.2483 13.2054C27.6709 13.2756 28.0904 13.358 28.5084 13.4374C28.6862 13.471 28.8625 13.5061 29.0388 13.5397C30.8095 13.8831 32.6426 14.225 34.8115 14.3578C35.4149 14.3959 36.0411 14.4158 36.7038 14.4158H36.7388C44.004 14.4158 50.7525 11.1143 51.1918 5.48669C51.21 5.30811 51.2161 5.12647 51.2191 4.94026V4.88989C51.1629 4.05498 50.9607 3.35439 50.6461 2.7637L50.6446 2.75302Z" fill="#F7941C"/>
<path d="M29.0374 13.5265C28.0358 15.7473 22.5808 27.3963 13.3594 30.6276C12.7317 30.8474 12.0842 31.0275 11.4215 31.1618H11.4245C11.4245 31.1618 11.4215 31.1633 11.42 31.1633C11.3789 31.171 11.3409 31.1786 11.2999 31.1878C11.2573 31.1954 11.2148 31.2061 11.1737 31.2122C10.0748 31.4381 8.72208 31.5984 7.23863 31.4595C7.22191 31.4579 7.20215 31.4549 7.18239 31.4534H7.15959C7.13679 31.4518 7.114 31.4503 7.08968 31.4472C7.08968 31.4472 7.08208 31.4457 7.07752 31.4457C7.05168 31.4442 7.02736 31.4427 7.00152 31.4411H6.99392C6.96504 31.4381 6.93616 31.4335 6.90881 31.4305H6.90425C6.64282 31.4045 6.39659 31.3694 6.17012 31.3251C6.1534 31.3221 6.13668 31.3206 6.11996 31.316H6.11844C6.1002 31.3129 6.08652 31.3114 6.0698 31.3053H6.06676C6.05157 31.3022 6.03485 31.3007 6.01965 31.2961H6.01509C5.99989 31.2931 5.98469 31.2885 5.96797 31.2855C5.96797 31.2855 5.96797 31.2839 5.96645 31.2839C5.87221 31.2641 5.78254 31.2458 5.69286 31.2229H5.68374C5.67462 31.2168 5.66094 31.2137 5.6503 31.2122C5.64726 31.2122 5.64118 31.2107 5.6351 31.2091C5.62599 31.2076 5.61535 31.2046 5.60623 31.2C5.60015 31.2 5.59407 31.2 5.58799 31.1969C5.58039 31.1969 5.56975 31.1939 5.56063 31.1893C5.55455 31.1893 5.54847 31.1878 5.54239 31.1847C5.53327 31.1832 5.52567 31.1801 5.51655 31.1771C5.50895 31.1756 5.50135 31.1756 5.49527 31.171C5.48767 31.171 5.48007 31.1664 5.47095 31.1649C5.46487 31.1633 5.45727 31.1618 5.44815 31.1603C5.44207 31.1588 5.43599 31.1572 5.42687 31.1542C5.41928 31.1542 5.4132 31.1496 5.40256 31.145C5.39648 31.1435 5.38888 31.142 5.3828 31.142C5.3752 31.1389 5.3676 31.1374 5.35696 31.1343C5.35088 31.1313 5.3448 31.1298 5.34024 31.1267C5.3296 31.1267 5.32048 31.1221 5.31136 31.1191C5.3068 31.1176 5.30072 31.116 5.29768 31.116C5.284 31.1084 5.27032 31.1053 5.25512 31.1023C5.24448 31.0992 5.23232 31.0931 5.21864 31.0901L5.11377 31.0473C5.11377 31.0473 5.15633 31.084 5.23688 31.1481C5.86005 31.6274 8.81936 33.6788 13.7865 33.7291H13.8123C13.8686 33.7306 13.9233 33.7306 13.978 33.7306C16.4281 33.7306 19.8936 32.9003 23.5368 30.6078C29.5816 26.8011 32.7734 19.7707 34.6779 14.6987C34.7113 14.6071 34.7478 14.5201 34.7813 14.4301C34.7889 14.4011 34.7995 14.3736 34.8101 14.3431C32.6412 14.2103 30.8066 13.8653 29.0374 13.5234V13.5265Z" fill="#0071BC"/>
</g>
<defs>
<clipPath id="clip0_91_32750">
<rect width="94" height="37" fill="white" transform="translate(0.666504)"/>
</clipPath>
</defs>
</svg>
