<svg width="77" height="52" viewBox="0 0 77 52" fill="none" xmlns="http://www.w3.org/2000/svg">
<rect x="0.75" y="0.5" width="75" height="51" rx="3.5" stroke="#F3F3F3"/>
<path fill-rule="evenodd" clip-rule="evenodd" d="M65.3354 7.8103L50.8519 7.80664C50.8501 7.80664 50.8481 7.80664 50.8481 7.80664C50.837 7.80664 50.826 7.80859 50.8151 7.80859C48.8254 7.86834 46.3472 9.43241 45.8959 11.361L39.0465 41.0647C38.5952 43.0113 39.823 44.5953 41.7983 44.6244H57.0138C58.959 44.5301 60.8492 42.9841 61.2928 41.0773L68.1424 11.3735C68.601 9.40705 67.3435 7.8103 65.3354 7.8103Z" fill="#01798A"/>
<path fill-rule="evenodd" clip-rule="evenodd" d="M39.0467 41.0644L45.8961 11.3608C46.3475 9.43216 48.8256 7.86809 50.8153 7.80835L45.0567 7.80469L34.6814 7.80273C32.6862 7.84273 30.1758 9.41777 29.7246 11.3608L22.8732 41.0644C22.4202 43.011 23.6498 44.595 25.6239 44.6242H41.7985C39.8233 44.595 38.5954 43.011 39.0467 41.0644" fill="#024381"/>
<path fill-rule="evenodd" clip-rule="evenodd" d="M22.8729 41.0659L29.7243 11.3622C30.1754 9.41923 32.6859 7.84419 34.6811 7.8042L21.3898 7.80078C19.3834 7.80078 16.8109 9.39387 16.3524 11.3622L9.50099 41.0659C9.4593 41.2471 9.43616 41.4248 9.42236 41.5986V42.1497C9.55649 43.5687 10.6622 44.602 12.2517 44.6256H25.6236C23.6495 44.5965 22.4199 43.0125 22.8729 41.0659Z" fill="#DD0228"/>
<path fill-rule="evenodd" clip-rule="evenodd" d="M34.9614 29.4467H35.2129C35.4441 29.4467 35.5996 29.3707 35.6725 29.2202L36.3261 28.2614H38.0764L37.7114 28.892H39.8101L39.5439 29.8582H37.0466C36.759 30.2823 36.4049 30.4816 35.9792 30.458H34.6785L34.9614 29.4467H34.9614ZM34.6741 30.8314H39.2721L38.979 31.8809H37.1299L36.8477 32.894H38.6471L38.354 33.9434H36.5546L36.1366 35.4403C36.0331 35.6906 36.1692 35.8031 36.5427 35.7775H38.0091L37.7374 36.7528H34.9219C34.3883 36.7528 34.2052 36.4535 34.3726 35.8537L34.907 33.9434H33.7568L34.049 32.894H35.1994L35.4813 31.8809H34.3818L34.6741 30.8314H34.6741ZM42.0127 28.2543L41.9403 28.8687C41.9403 28.8687 42.8077 28.2305 43.5954 28.2305H46.5062L45.393 32.1798C45.3007 32.6313 44.9049 32.8558 44.2057 32.8558H40.9066L40.1338 35.6289C40.0892 35.7775 40.1522 35.8537 40.3186 35.8537H40.9678L40.7292 36.7145H39.0788C38.4454 36.7145 38.1819 36.5278 38.2864 36.1528L40.4701 28.2543H42.0127H42.0127ZM44.4778 29.3707H41.8798L41.569 30.4363C41.569 30.4363 42.0017 30.1302 42.7248 30.1192C43.4458 30.1081 44.2688 30.1192 44.2688 30.1192L44.4778 29.3707ZM43.5366 31.8427C43.7286 31.8683 43.8361 31.7938 43.8491 31.6179L44.008 31.0562H41.406L41.1878 31.8427H43.5366ZM41.7814 33.1187H43.2812L43.2533 33.7548H43.6527C43.8544 33.7548 43.9545 33.6914 43.9545 33.5665L44.0726 33.155H45.3192L45.1527 33.7548C45.0119 34.2551 44.6387 34.5161 44.0321 34.5416H43.2332L43.2294 35.6289C43.2148 35.8031 43.3755 35.8918 43.7064 35.8918H44.4573L44.215 36.7527H42.4139C41.909 36.7763 41.6615 36.5405 41.6667 36.0404L41.7814 33.1187Z" fill="white"/>
<path fill-rule="evenodd" clip-rule="evenodd" d="M23.6073 22.9939C23.4039 23.9708 22.9323 24.7211 22.2009 25.254C21.4761 25.7778 20.5412 26.0405 19.3966 26.0405C18.3194 26.0405 17.5297 25.7723 17.0258 25.234C16.6763 24.8515 16.5024 24.3658 16.5024 23.7786C16.5024 23.5358 16.5321 23.2748 16.5913 22.9939L17.8108 17.2305H19.6527L18.4498 22.9286C18.4127 23.0863 18.3979 23.2331 18.3999 23.3655C18.3979 23.6573 18.4719 23.8965 18.6217 24.0831C18.8399 24.3605 19.194 24.4981 19.6869 24.4981C20.2536 24.4981 20.7206 24.3623 21.083 24.0885C21.4455 23.8167 21.6822 23.4307 21.7885 22.9286L22.9952 17.2305H24.8278L23.6073 22.9939Z" fill="white"/>
<path fill-rule="evenodd" clip-rule="evenodd" d="M31.3424 20.7255H32.7849L31.655 25.8692H30.2153L31.3424 20.7255ZM31.7964 18.8516H33.2517L32.9799 20.1001H31.5246L31.7964 18.8516Z" fill="white"/>
<path fill-rule="evenodd" clip-rule="evenodd" d="M34.0618 25.4781C33.6845 25.1247 33.494 24.648 33.4922 24.0427C33.4922 23.9393 33.4986 23.8216 33.5126 23.6928C33.5265 23.5623 33.5441 23.4354 33.569 23.3177C33.74 22.4822 34.1044 21.8189 34.6656 21.3295C35.2259 20.8383 35.9019 20.5918 36.6933 20.5918C37.3415 20.5918 37.8555 20.7694 38.232 21.1247C38.6081 21.4818 38.7967 21.9638 38.7967 22.5765C38.7967 22.6815 38.7885 22.803 38.7746 22.9334C38.7579 23.0658 38.7378 23.1926 38.7144 23.3177C38.5472 24.1405 38.1839 24.7966 37.6226 25.277C37.0613 25.7609 36.3873 26.0018 35.6013 26.0018C34.9504 26.0018 34.4381 25.8279 34.0618 25.4781M36.8108 24.4595C37.0651 24.1895 37.2473 23.7798 37.3582 23.2344C37.3749 23.1492 37.3896 23.0603 37.3988 22.9716C37.408 22.8845 37.4117 22.803 37.4117 22.7287C37.4117 22.4114 37.3294 22.165 37.1639 21.991C36.9994 21.8152 36.7656 21.7283 36.4633 21.7283C36.0637 21.7283 35.7382 21.8658 35.4832 22.1414C35.2259 22.417 35.0438 22.8338 34.9291 23.3884C34.9134 23.4735 34.9005 23.5588 34.8886 23.6421C34.8794 23.7273 34.8766 23.807 34.8784 23.8795C34.8784 24.1949 34.9607 24.4378 35.1262 24.6099C35.2906 24.7822 35.5235 24.8673 35.8298 24.8673C36.2311 24.8673 36.5566 24.7314 36.8108 24.4595" fill="white"/>
<path fill-rule="evenodd" clip-rule="evenodd" d="M48.1558 29.4908L48.5036 28.2911H50.2622L50.1863 28.7313C50.1863 28.7313 51.085 28.2911 51.7321 28.2911C52.3795 28.2911 53.9067 28.2911 53.9067 28.2911L53.5611 29.4908H53.219L51.5786 35.1493H51.9207L51.5953 36.273H51.2532L51.1108 36.7605H49.4078L49.5498 36.273H46.1899L46.5174 35.1493H46.854L48.4959 29.4908H48.1558H48.1558ZM50.0531 29.4908L49.6055 31.0222C49.6055 31.0222 50.3713 30.7342 51.0314 30.6526C51.1772 30.1179 51.3678 29.4908 51.3678 29.4908H50.0531L50.0531 29.4908ZM49.3982 31.7401L48.9491 33.3441C48.9491 33.3441 49.7978 32.9345 50.3802 32.9C50.5484 32.2801 50.7169 31.7401 50.7169 31.7401H49.3982V31.7401ZM49.7274 35.1493L50.064 33.9857H48.7513L48.4129 35.1493H49.7274ZM53.9807 28.2168H55.634L55.7042 28.8147C55.6932 28.9669 55.7855 29.0396 55.9816 29.0396H56.2737L55.9781 30.0526H54.7629C54.2989 30.0762 54.0603 29.9023 54.0381 29.527L53.9807 28.2168ZM53.4963 30.3898H58.8517L58.5374 31.4774H56.8323L56.54 32.4885H58.2433L57.9271 33.5742H56.0299L55.6007 34.2105H56.5293L56.7438 35.4846C56.7694 35.6114 56.8841 35.6731 57.0802 35.6731H57.3685L57.0655 36.7223H56.0446C55.5157 36.7478 55.2422 36.5738 55.2198 36.1987L54.9738 35.0351L54.1288 36.273C53.929 36.6227 53.622 36.7859 53.208 36.7605H51.649L51.9523 35.711H52.4387C52.6385 35.711 52.8047 35.624 52.9544 35.4482L54.2769 33.5742H52.5718L52.8878 32.4885H54.7371L55.0312 31.4774H53.1801L53.4963 30.3898Z" fill="white"/>
<path fill-rule="evenodd" clip-rule="evenodd" d="M25.3038 20.7243H26.6047L26.4559 21.4673L26.6426 21.2553C27.0643 20.8131 27.5765 20.5938 28.1813 20.5938C28.7286 20.5938 29.1234 20.7497 29.3712 21.0632C29.6153 21.3768 29.6819 21.81 29.5664 22.3664L28.8497 25.8715H27.5128L28.16 22.6944C28.2266 22.3664 28.2082 22.1217 28.1053 21.9639C28.0038 21.8063 27.8095 21.7284 27.5294 21.7284C27.1854 21.7284 26.896 21.8334 26.6602 22.0419C26.4235 22.2521 26.2673 22.544 26.1905 22.9155L25.5941 25.8715H24.2544L25.3038 20.7243Z" fill="white"/>
<path fill-rule="evenodd" clip-rule="evenodd" d="M40.2221 20.7243H41.5241L41.3763 21.4673L41.5609 21.2553C41.9829 20.8131 42.4969 20.5938 43.0998 20.5938C43.6471 20.5938 44.0427 20.7497 44.2886 21.0632C44.5311 21.3768 44.6013 21.81 44.4829 22.3664L43.7691 25.8715H42.4302L43.0776 22.6944C43.1441 22.3664 43.1256 22.1217 43.0239 21.9639C42.9184 21.8063 42.7278 21.7284 42.4489 21.7284C42.1048 21.7284 41.8164 21.8334 41.5778 22.0419C41.341 22.2521 41.184 22.544 41.1101 22.9155L40.5109 25.8715H39.1729L40.2221 20.7243" fill="white"/>
<path fill-rule="evenodd" clip-rule="evenodd" d="M46.658 17.5352H50.4379C51.1646 17.5352 51.7267 17.6966 52.1131 18.0136C52.4977 18.3345 52.6903 18.7949 52.6903 19.3948V19.4128C52.6903 19.5269 52.6826 19.6557 52.6716 19.7952C52.653 19.933 52.6288 20.0724 52.5977 20.2175C52.4313 21.0114 52.0446 21.6494 51.4475 22.1333C50.8481 22.6154 50.1383 22.8583 49.321 22.8583H47.2939L46.6672 25.8724H44.9121L46.658 17.5352M47.6028 21.4084H49.284C49.7222 21.4084 50.0698 21.3086 50.3233 21.1111C50.5748 20.9118 50.7413 20.6073 50.8336 20.1941C50.8483 20.1178 50.8575 20.049 50.8687 19.9856C50.8744 19.9259 50.8816 19.8659 50.8816 19.8081C50.8816 19.5126 50.7746 19.2987 50.5599 19.1646C50.3454 19.0285 50.0091 18.9634 49.5428 18.9634H48.1151L47.6028 21.4084" fill="white"/>
<path fill-rule="evenodd" clip-rule="evenodd" d="M60.5455 26.8672C59.9906 28.0234 59.4619 28.6975 59.1514 29.0111C58.8404 29.3211 58.2248 30.0425 56.7417 29.988L56.8693 29.1055C58.1174 28.7285 58.7924 27.0301 59.177 26.278L58.7185 20.7392L59.6838 20.7266H60.4937L60.5808 24.201L62.0988 20.7266H63.6356L60.5455 26.8672" fill="white"/>
<path fill-rule="evenodd" clip-rule="evenodd" d="M56.2479 21.1441L55.6374 21.5556C54.9994 21.0663 54.417 20.7636 53.2929 21.2746C51.7614 21.9705 50.4818 27.3082 54.6981 25.5501L54.9385 25.8292L56.5972 25.8709L57.6865 21.0208L56.2479 21.1441M55.3049 23.7957C55.0384 24.566 54.4432 25.0753 53.9772 24.9303C53.5112 24.7889 53.3448 24.0458 53.6147 23.2737C53.8809 22.5016 54.4801 21.9942 54.9423 22.1391C55.4084 22.2805 55.5766 23.0236 55.3049 23.7957Z" fill="white"/>
<path fill-rule="evenodd" clip-rule="evenodd" d="M50.8479 7.81605L45.0562 7.80469L50.8148 7.82905C50.8257 7.82905 50.8367 7.81605 50.8479 7.81605" fill="#E02F41"/>
<path fill-rule="evenodd" clip-rule="evenodd" d="M45.0564 7.83653L34.7608 7.80078C34.7349 7.80078 34.708 7.81215 34.6812 7.82353L45.0564 7.83653" fill="#2E4F7D"/>
</svg>
