<svg width="72" height="72" viewBox="0 0 72 72" fill="none" xmlns="http://www.w3.org/2000/svg">
<g clip-path="url(#clip0_91_32807)">
<path fill-rule="evenodd" clip-rule="evenodd" d="M8.25357 45.6005H25.4826L25.2185 47.126H21.0701L21.6678 46.2564H13.0912L12.4939 47.126H9.75068L8.25357 45.6005ZM23.8865 51.0581H8.1826L9.68158 49.5326H15.3615L14.8516 50.2745H21.63C22.5373 50.2748 23.383 50.5901 23.8865 51.0581ZM8.17588 47.5675H25.142L24.8786 49.093H9.67336L8.17588 47.5675ZM25.8225 43.6357L25.5588 45.1605H21.388L21.9841 44.2901H13.4079L12.8091 45.1605H10.0742L8.57556 43.6357H25.8225ZM14.0634 42.0774C14.226 41.8623 14.464 41.7169 14.7294 41.6702H23.188C24.4935 41.6941 25.6585 42.3639 25.8292 43.1957H10.4182L8.30736 41.0449H13.0504L14.0634 42.0774ZM47.5492 45.6005H64.4865C64.8623 45.9165 65.117 46.2934 65.1854 46.6979C65.2116 46.844 65.2116 46.9859 65.1906 47.1249H60.9585L61.0788 46.429H58.6729L58.5549 47.1249L53.9571 47.1264L54.0774 46.429H51.6715L51.5527 47.1264H49.0467L47.5492 45.6005ZM66.9477 43.6357L66.7669 44.6876H61.8696C62.5767 44.7152 63.2464 44.8889 63.7977 45.1605H48.8995L48.2059 44.4515H50.1576L50.2999 43.6357H66.9477ZM47.0364 47.5675H51.4735L51.332 48.3881H53.7386L53.8802 47.5675H58.475L58.3334 48.3881H60.74L60.8816 47.5675H65.1137L64.8489 49.093H48.5342L47.0364 47.5675ZM59.392 42.2518H67.1894L67.0247 43.1961H48.4733L47.5462 42.2518H54.7972L54.9518 41.3583H59.5474L59.392 42.2518ZM64.7723 49.5326L64.5097 51.0581H46.4977L45.6861 50.2319H49.632L48.9462 49.5326H64.7723ZM37.4341 43.6357H39.6439L39.3813 45.1605H37.1692L37.4341 43.6357ZM34.3188 45.1605L34.584 43.6357H36.7934L36.5309 45.1605H34.3188ZM33.9789 47.126L34.2441 45.6005H36.4535L36.1909 47.126H33.9789ZM33.6386 49.093L33.9038 47.5675H36.1133L35.851 49.093H33.6386ZM33.2983 51.0581L33.5639 49.5326H35.7733L35.5104 51.0581H33.2983ZM32.9226 49.5326L32.66 51.0581H27.0182L25.5192 49.5326H32.9226ZM45.2423 49.5326L44.9767 51.0581H39.0133L39.2759 49.5326H45.2423ZM38.6245 49.5326L38.3589 51.0581H36.1487L36.4139 49.5326H38.6245ZM38.9633 47.5675L38.7003 49.093H36.4894L36.7539 47.5675H38.9633ZM39.3047 45.6005L39.0417 47.126H36.8301L37.0956 45.6005H39.3047ZM45.5837 47.5675L44.7171 49.093H39.8822L39.6173 47.5675H41.9792L42.0949 48.2212H42.8517L43.2215 47.5675H45.5837ZM43.9021 43.6357H46.2643L45.9987 45.1605H43.6395L43.9021 43.6357ZM40.2975 43.6357H42.6597L42.3971 45.1605H40.0327L40.2975 43.6357ZM42.0557 47.126H39.6935L39.9591 45.6005H42.3206L42.0557 47.126ZM45.9229 45.6005L45.6595 47.126H43.2981L43.5637 45.6005H45.9229ZM33.2625 47.5675L32.3989 49.093H28.2396L26.7422 47.5675H29.6613L29.7737 48.2212H30.5335L30.9036 47.5675H33.2625ZM30.0789 45.1605H28.3711L26.8736 43.6357H30.3415L30.0789 45.1605ZM33.9445 43.6357L33.6805 45.1605H31.3201L31.5842 43.6357H33.9445ZM29.7382 47.126H28.3472L26.8497 45.6005H30.0012L29.7382 47.126ZM33.6043 45.6005L33.3402 47.126H30.9798L31.2439 45.6005H33.6043ZM28.0417 51.4981H31.4251L30.6646 53.5402H31.7493L31.1584 55.1774H30.058L28.3633 59.7326C28.2908 59.9279 28.0954 60.077 27.8915 60.0785H24.4774C24.4774 60.0785 25.155 59.4517 25.6399 58.1298C26.0014 57.1484 26.3556 56.1642 26.7022 55.1774H25.155L25.437 53.5402H27.2931L28.0417 51.4981ZM40.5366 42.2518H42.0161L42.1708 41.3583H45.0324L44.877 42.2518H47.2101L46.8687 43.1961L40.3741 43.1976L40.5366 42.2518ZM27.726 43.1961L26.7989 42.2522H29.6979L29.8529 41.3583H32.7141L32.5587 42.2522H34.8235L34.9785 41.3583H37.1879L37.0355 42.2522H38.2861C38.9958 42.2522 39.6334 42.6272 39.7122 43.0896C39.7186 43.1254 39.7178 43.1621 39.71 43.1976L27.726 43.1961ZM35.4331 51.4981L33.0843 58.4398H34.6236L36.0737 51.4981H38.2823L37.8569 53.5402H39.7275L40.079 51.4981H43.7131L43.3608 53.5402H44.5487L44.2648 55.1774H43.077L42.3023 59.6489C42.26 59.8801 42.0475 60.0691 41.8215 60.0785H38.5954L39.4436 55.1774H37.5155L36.4913 60.0785H33.2076C32.933 60.0785 32.7059 59.8536 32.6992 59.5735L32.6439 59.7397C32.5692 59.9324 32.375 60.0781 32.1725 60.0781H29.7573C29.7573 60.0781 30.5305 59.3549 30.9234 58.144L33.2236 51.4978H35.4331V51.4981ZM56.66 58.0356L56.3791 59.6538C56.3346 59.8842 56.1217 60.0718 55.8954 60.0785L49.396 60.074L49.9794 58.4398H51.9946L52.0648 58.0356H44.9767L45.5624 56.4H52.3487L52.5609 55.1759H45.4683L46.054 53.5402H52.8425L53.0554 52.3132H47.3516L46.5519 51.4989L63.3958 51.4981C63.9049 51.4989 64.3151 51.8134 64.3151 52.1993C64.3151 52.2224 64.3121 52.2452 64.3091 52.2687L64.0887 53.5402H65.2814L65.0005 55.1737H63.8048L63.311 58.0356H56.66ZM57.6506 52.3188H60.0595L59.8465 53.5421H57.4377L57.6506 52.3188ZM57.1538 55.1774H59.5627L59.3505 56.4H56.9439L57.1538 55.1774ZM23.0506 59.6523C23.0076 59.8805 22.7969 60.0688 22.5728 60.0785H16.3229V58.8776C15.8022 59.5918 15.4164 60.0785 15.4164 60.0785H10.2041C10.2041 60.0785 11.4009 58.7465 12.5787 57.0435C13.9973 54.9936 15.0103 53.1398 15.0103 53.1398H19.1024C19.2056 53.1327 19.3022 53.0865 19.3724 53.0105C19.4426 52.9345 19.4811 52.8346 19.48 52.7312C19.48 52.5052 19.2992 52.3225 19.077 52.3225H13.6735C13.4516 52.3225 13.2701 52.5048 13.2701 52.7312C13.2701 52.9586 13.4382 53.1398 13.66 53.1398C13.6979 53.1401 13.735 53.15 13.768 53.1686C13.801 53.1872 13.8287 53.2138 13.8486 53.246C13.8686 53.2782 13.88 53.3149 13.8819 53.3527C13.8838 53.3905 13.8761 53.4281 13.8595 53.4622C13.4303 54.1685 12.3751 55.8808 11.5634 57.0215C10.5112 58.5018 9.12278 60.0785 9.12278 60.0785H4.55713C4.55713 60.0785 5.75616 58.8257 7.02653 57.196C7.87631 56.1075 8.58452 55.0452 9.06675 54.2821C9.07908 54.253 9.08531 54.2217 9.08505 54.1902C9.08565 54.1312 9.06294 54.0745 9.02188 54.0322C8.98081 53.9899 8.92471 53.9656 8.86579 53.9646L5.90221 53.9616L8.32193 51.4978H24.2294C24.2858 51.6057 24.3254 51.7189 24.3448 51.8347C24.3658 51.9479 24.3658 52.0596 24.3475 52.166L23.0506 59.6523ZM16.776 58.24H18.5335L19.2682 53.9997C18.8372 54.8349 18.1607 56.1123 17.563 57.0581C17.3099 57.4581 17.0475 57.8522 16.776 58.24Z" fill="black"/>
<path fill-rule="evenodd" clip-rule="evenodd" d="M9.47082 11.918H62.4843C65.0692 11.918 67.1635 14.0116 67.1635 16.5968V33.437C67.1635 36.0192 65.0692 38.1139 62.4843 38.1139H9.47082C6.88712 38.1139 4.79199 36.0192 4.79199 33.437V16.5968C4.79199 14.012 6.88712 11.918 9.47082 11.918Z" fill="#CC222E"/>
<path fill-rule="evenodd" clip-rule="evenodd" d="M51.5708 26.8885C48.9852 26.8885 46.8916 24.7919 46.8916 22.2097C46.8916 21.5575 47.0257 20.9378 47.2674 20.373C47.5744 21.9523 48.9643 23.1446 50.6329 23.1446L59.3735 23.1472C61.2672 23.1472 62.8047 24.6813 62.8047 26.5755C62.8052 27.3808 62.5215 28.1605 62.0035 28.7771C61.9327 28.2539 61.6745 27.7741 61.2769 27.4267C60.8792 27.0793 60.3691 26.888 59.8411 26.8881L51.5708 26.8885Z" fill="white"/>
<path fill-rule="evenodd" clip-rule="evenodd" d="M62.4842 19.4056L51.1024 19.4034C50.5744 19.4035 50.0643 19.5948 49.6665 19.942C49.2687 20.2892 49.0101 20.7688 48.9386 21.2919C48.4209 20.6753 48.1379 19.8955 48.1396 19.0904C48.1396 17.1962 49.6759 15.6621 51.5708 15.6621L62.4842 15.6647V19.4056ZM64.0523 29.6937C64.0523 29.0419 63.919 28.4193 63.6773 27.8571C63.5241 28.6379 63.1044 29.3412 62.49 29.8468C61.8755 30.3524 61.1045 30.6288 60.3088 30.6287H46.8916V34.3699H59.3735C61.9561 34.3699 64.0523 32.2763 64.0523 29.6937ZM30.3648 34.3699H26.6221V20.3383C26.6221 17.7561 28.7157 15.6621 31.2987 15.6621H31.8608C31.3884 16.0994 31.0117 16.6298 30.7542 17.2197C30.4968 17.8097 30.3642 18.4466 30.3648 19.0904V34.3699Z" fill="white"/>
<path fill-rule="evenodd" clip-rule="evenodd" d="M31.6113 20.3462V19.0904C31.6113 17.1962 33.1469 15.6621 35.0422 15.6621H40.9697C42.8635 15.6621 44.3987 17.1962 44.3987 19.0904C44.4001 19.8954 44.1171 20.6751 43.5997 21.2919C43.5287 20.7688 43.2705 20.2892 42.8729 19.942C42.4753 19.5947 41.9653 19.4034 41.4374 19.4034H33.4099C33.0561 19.4029 32.7076 19.4885 32.3942 19.6528C32.0809 19.817 31.8122 20.055 31.6113 20.3462Z" fill="white"/>
<path fill-rule="evenodd" clip-rule="evenodd" d="M45.6463 22.209C45.6463 21.5568 45.5122 20.9371 45.2735 20.3723C45.1201 21.153 44.7004 21.8562 44.086 22.3618C43.4716 22.8673 42.7007 23.1438 41.905 23.1439H31.6113V26.8878H40.9697C43.5527 26.8878 45.6463 24.7915 45.6463 22.209ZM7.91162 22.209C7.91162 21.5568 8.0446 20.9371 8.28627 20.3723C8.38188 20.859 8.58164 21.3192 8.87184 21.7214C9.16204 22.1236 9.53582 22.4582 9.96753 22.7024C9.33083 23.1321 8.81004 23.7123 8.45137 24.3915C8.09603 23.7189 7.91072 22.9696 7.91162 22.209ZM19.1377 22.209V20.3436C19.2047 20.8227 19.4291 21.2659 19.7756 21.6036C20.1221 21.9413 20.5709 22.1542 21.0516 22.209H19.1377ZM19.1377 26.5751C19.1377 24.681 20.6747 23.1439 22.5685 23.1439H25.0738V26.8878H21.2997C20.7732 26.8885 20.2647 27.0791 19.8675 27.4247C19.4703 27.7703 19.2112 28.2476 19.1377 28.7689V26.5751ZM25.063 19.4034L12.1202 19.4004C11.592 19.401 11.082 19.593 10.6845 19.9408C10.287 20.2886 10.029 20.7686 9.95819 21.2919C9.44031 20.6753 9.15694 19.8956 9.15809 19.0904C9.15809 17.1962 10.6952 15.6621 12.589 15.6621H25.063V19.4034ZM17.8897 26.8904L12.1206 26.8882C11.5926 26.8882 11.0826 27.0796 10.6851 27.4269C10.2876 27.7743 10.0294 28.254 9.95856 28.7771C9.44074 28.1605 9.15737 27.3807 9.15846 26.5755C9.15846 24.6813 10.6955 23.1473 12.5893 23.1473H19.3861C18.9135 23.5845 18.5366 24.1148 18.2791 24.7048C18.0215 25.2948 17.889 25.9317 17.8897 26.5755V26.8904Z" fill="white"/>
<path fill-rule="evenodd" clip-rule="evenodd" d="M7.91162 29.6941C7.91162 29.0423 8.0446 28.4196 8.28627 27.8574C8.43904 28.6384 8.85858 29.3419 9.47304 29.8475C10.0875 30.3532 10.8586 30.6294 11.6544 30.629H24.3999V34.3703H12.5893C10.0056 34.3703 7.91162 32.2766 7.91162 29.6941Z" fill="white"/>
</g>
<defs>
<clipPath id="clip0_91_32807">
<rect width="72" height="72" fill="white"/>
</clipPath>
</defs>
</svg>
