<svg width="90" height="21" viewBox="0 0 90 21" fill="none" xmlns="http://www.w3.org/2000/svg">
<path fill-rule="evenodd" clip-rule="evenodd" d="M21.4311 5.10145L8.34668 12.7155L8.26862 12.7696C8.16173 12.8207 8.04481 12.8473 7.92634 12.8477C7.79084 12.8468 7.65806 12.8096 7.54187 12.7398C7.42567 12.6701 7.33033 12.5705 7.26581 12.4513L7.21778 12.3432L5.13411 7.80962C5.12208 7.75827 5.12208 7.70484 5.13411 7.65349C5.13247 7.60467 5.14078 7.55602 5.15854 7.51051C5.17629 7.465 5.20311 7.42357 5.23737 7.38875C5.27163 7.35393 5.31262 7.32643 5.35783 7.30794C5.40305 7.28946 5.45156 7.28036 5.5004 7.2812C5.58589 7.28589 5.66868 7.3128 5.74059 7.35926L8.19055 9.08264C8.38334 9.19805 8.60247 9.26213 8.82706 9.26879C8.96145 9.26689 9.09412 9.23831 9.21737 9.18472L20.6986 4.04461C19.5292 2.73626 18.0898 1.69735 16.4797 0.999619C14.8697 0.301891 13.1274 -0.0380172 11.3731 0.00337354C5.11009 0.00337354 0 4.27279 0 9.54501C0.0364285 10.9708 0.410902 12.3675 1.0926 13.6202C1.7743 14.873 2.74374 15.9459 3.92114 16.7508C4.01602 16.8204 4.09393 16.9106 4.14904 17.0146C4.20415 17.1185 4.23504 17.2336 4.23939 17.3513C4.23517 17.4338 4.2169 17.515 4.18535 17.5914C4.00521 18.306 3.68695 19.471 3.68695 19.525C3.65467 19.6199 3.63646 19.719 3.63291 19.8192C3.63206 19.8681 3.64116 19.9166 3.65965 19.9618C3.67814 20.007 3.70564 20.048 3.74046 20.0823C3.77528 20.1165 3.81671 20.1433 3.86222 20.1611C3.90773 20.1788 3.95638 20.1872 4.0052 20.1855C4.08282 20.1883 4.15836 20.1602 4.21537 20.1075L6.68935 18.6483C6.87132 18.5382 7.07748 18.4743 7.28983 18.4621C7.40542 18.4689 7.52007 18.487 7.63211 18.5162C8.83693 18.8713 10.087 19.0493 11.3431 19.0446C17.6121 19.0446 22.7162 14.7812 22.7162 9.50297C22.7024 7.9453 22.2576 6.42186 21.4311 5.10145Z" fill="#22AC38"/>
<path d="M58.6129 6.77679H50.0801V7.54541H58.6129V6.77679Z" fill="#494949"/>
<path d="M58.6129 9.16071H50.0801V9.98336H58.6129V9.16071Z" fill="#494949"/>
<path fill-rule="evenodd" clip-rule="evenodd" d="M50.2902 16.2644H58.3727V11.6287H50.2902V16.2644ZM51.1069 12.3973H57.562V15.4958H51.1069V12.3973Z" fill="#494949"/>
<path fill-rule="evenodd" clip-rule="evenodd" d="M45 9.455L45.4444 10.2476C45.9187 9.53306 46.4231 8.68638 46.9215 7.80968V16.8169H47.7382V6.0863C48.2288 5.00943 48.65 3.90229 48.9992 2.77165L48.2366 2.32129C47.5462 4.85701 46.4535 7.26552 45 9.455Z" fill="#494949"/>
<path fill-rule="evenodd" clip-rule="evenodd" d="M75.9669 9.455L76.4112 10.2476C76.8856 9.53306 77.384 8.68638 77.8884 7.80968V16.8169H78.7051V6.0863C79.1957 5.00943 79.6169 3.90229 79.9661 2.77165L79.2035 2.32129C78.5131 4.85701 77.4204 7.26552 75.9669 9.455Z" fill="#494949"/>
<path fill-rule="evenodd" clip-rule="evenodd" d="M55.028 3.99062C54.974 3.85851 54.8179 3.51024 54.6317 3.13794C54.4456 2.76564 54.3195 2.47741 54.2354 2.29126L53.4728 2.74162C53.737 3.24602 53.9772 3.72041 54.1874 4.17077C54.2104 4.21404 54.2266 4.26063 54.2354 4.30887H49.2634V5.12553H59.5076V4.30887H54.5056L55.028 3.99062Z" fill="#494949"/>
<path fill-rule="evenodd" clip-rule="evenodd" d="M37.494 3.67232H36.7314V6.38049H35.2842V2.53741H34.5216V6.38049H33.0204V3.67232H32.2578V7.1491H37.494V3.67232Z" fill="#494949"/>
<path d="M37.1277 8.65637H32.492V9.42499H37.1277V8.65637Z" fill="#494949"/>
<path fill-rule="evenodd" clip-rule="evenodd" d="M38.1785 13.4841L37.8122 12.8476L36.6112 13.8564V10.9681H32.6781V12.1331C32.7802 13.7243 32.3898 14.8653 31.4771 15.5258L31.8975 16.2704H31.9275C32.483 15.8126 32.916 15.2239 33.1874 14.5573C33.4589 13.8906 33.5604 13.1669 33.4827 12.4513V11.7608H35.8126V13.4601C35.8126 14.0606 35.7585 14.2528 35.5484 14.523L36.0227 15.3396C36.4491 14.9974 37.1336 14.4089 38.1064 13.5382L38.1785 13.4841Z" fill="#494949"/>
<path fill-rule="evenodd" clip-rule="evenodd" d="M31.9155 2.77162L31.201 2.34528C30.5252 3.7649 29.6089 5.05695 28.4928 6.16433L28.9672 6.96297C30.1778 5.74087 31.1745 4.32403 31.9155 2.77162Z" fill="#494949"/>
<path fill-rule="evenodd" clip-rule="evenodd" d="M31.8315 6.72273L31.0989 6.29639C30.4169 8.00144 29.4639 9.5851 28.2767 10.9861L28.703 11.7307C29.1534 11.1963 29.6037 10.6439 30.0241 10.0614V16.7387H30.7867V8.8184C31.1614 8.14909 31.4943 7.45721 31.7835 6.74675L31.8315 6.72273Z" fill="#494949"/>
<path fill-rule="evenodd" clip-rule="evenodd" d="M40.4424 2.40533H39.6558C39.2423 4.50262 38.4856 6.51729 37.416 8.36811L37.8904 9.21478L38.2146 8.47019C38.3467 8.22999 38.4488 8.04985 38.5329 7.86971C38.6753 9.57887 39.093 11.2538 39.7699 12.8297C39.0762 13.9628 38.2043 14.9766 37.1878 15.8321L37.6141 16.6367C38.5916 15.7795 39.4337 14.7794 40.1121 13.6703C40.7768 14.7581 41.5646 15.7655 42.46 16.6728L42.9104 15.8801C41.9804 14.9993 41.1834 13.9879 40.5445 12.8777C41.4092 11.2864 41.9376 8.95057 42.1478 5.93016H43.0425V5.18556H39.7098C40.0353 4.28217 40.2805 3.35182 40.4424 2.40533ZM41.5233 6.00822C41.4482 8.0511 41.03 10.0668 40.2863 11.971C39.6996 10.2665 39.3284 8.49537 39.1814 6.69877C39.2618 6.46235 39.3581 6.23164 39.4696 6.00822H41.5233Z" fill="#494949"/>
<path fill-rule="evenodd" clip-rule="evenodd" d="M68.4848 2.21307H67.6381V4.30875H61.1949V5.13141H67.6381V7.86359H63.4347V8.60219C63.9505 9.69779 64.6044 10.7229 65.3803 11.6526C65.9609 12.3632 66.604 13.0204 67.3018 13.6162C65.5109 14.7292 63.5303 15.5027 61.4592 15.898L61.9335 16.7447C64.0658 16.218 66.0953 15.3393 67.9383 14.1446C69.6566 15.3902 71.6094 16.2747 73.6789 16.7447L74.0212 16.1082C74.0212 16.1082 73.1265 15.868 71.7574 15.3396C70.6101 14.8932 69.5148 14.3234 68.4908 13.6402C70.3321 12.2779 71.7482 10.4203 72.574 8.28393L71.8895 7.88761H68.3887V5.13141H74.9159V4.30875H68.4848V2.21307ZM71.6973 8.57817C70.9105 10.3932 69.6234 11.9469 67.9864 13.0577C66.4299 11.8673 65.1683 10.3345 64.2994 8.57817H71.6973Z" fill="#494949"/>
<path fill-rule="evenodd" clip-rule="evenodd" d="M87.7842 5.92415V2.40533H86.9736V5.95418H80.1761V6.77683H86.9736V14.493C86.9736 15.3397 86.4151 15.742 85.4724 15.742H84.998V16.5647H85.7066C85.9973 16.593 86.2907 16.5601 86.5679 16.468C86.845 16.376 87.0999 16.2268 87.3159 16.0302C87.4989 15.8222 87.6354 15.5774 87.7162 15.3122C87.797 15.0471 87.8202 14.7678 87.7842 14.493V6.74681H90V5.92415H87.7842Z" fill="#494949"/>
<path fill-rule="evenodd" clip-rule="evenodd" d="M81.9655 9.37086C82.4399 10.3556 82.9924 11.5446 83.6289 12.9737L84.4455 12.4994C83.9952 11.5986 83.4187 10.4037 82.7041 8.94452L81.9655 9.37086Z" fill="#494949"/>
</svg>
