<svg width="91" height="33" viewBox="0 0 91 33" fill="none" xmlns="http://www.w3.org/2000/svg">
<path d="M27.4136 20.2692C29.3004 20.9813 31.2471 21.531 33.2315 21.9121V5.18027C33.2333 4.50169 33.0984 3.82941 32.8346 3.20182C32.5709 2.57424 32.1834 2.00364 31.6943 1.52261C31.2052 1.04158 30.6241 0.659528 29.9841 0.398278C29.3441 0.137028 28.6578 0.00169329 27.9644 0L5.53695 0C4.84209 0.00042364 4.15412 0.134805 3.51234 0.395468C2.87056 0.656132 2.28753 1.03797 1.79657 1.51917C1.30562 2.00038 0.916338 2.57152 0.650976 3.19998C0.385614 3.82843 0.249367 4.50189 0.250017 5.18189V27.0956C0.248282 27.7742 0.383145 28.4464 0.646906 29.074C0.910666 29.7016 1.29816 30.2722 1.78726 30.7532C2.27636 31.2343 2.85749 31.6163 3.49747 31.8776C4.13745 32.1388 4.82374 32.2742 5.51716 32.2759H27.9446C28.6395 32.2754 29.3274 32.141 29.9692 31.8804C30.611 31.6197 31.194 31.2379 31.685 30.7567C32.1759 30.2755 32.5652 29.7043 32.8306 29.0759C33.0959 28.4474 33.2322 27.774 33.2315 27.094V26.9165C33.2315 26.9165 24.6712 23.4274 20.3358 21.3731C17.4317 24.8266 13.6768 26.9181 9.79157 26.9181C3.21341 26.9181 0.990451 21.2956 4.10556 17.5807C5.06381 16.5597 6.33654 15.8729 7.73022 15.6247C10.5337 14.9502 14.9994 16.0443 19.1748 17.3951C19.9532 15.9814 20.5749 14.4902 21.0267 12.9458H8.14909V11.6645H14.7866V9.3955H6.71769V8.12545H14.7784V4.83977C14.7769 4.76566 14.7911 4.69205 14.82 4.62354C14.8489 4.55504 14.8919 4.4931 14.9464 4.44161C15.0009 4.39011 15.0656 4.35017 15.1366 4.32427C15.2076 4.29837 15.2832 4.28707 15.3588 4.29107H18.6125V8.12545H26.5726V9.3955H18.6125V11.6839H25.1098C24.5358 14.0683 23.6086 16.3577 22.3575 18.4795C24.3612 19.1832 26.0828 19.8287 27.3641 20.2789L27.4136 20.2692ZM7.88194 16.706C6.77706 16.8028 5.71835 17.1901 4.81796 17.8243C2.41031 19.8819 3.86644 23.6437 8.70978 23.6437C11.5643 23.6437 14.3628 21.8556 16.599 19.0347C13.4575 17.4984 10.7744 16.4365 7.88194 16.706Z" fill="white"/>
<path d="M87.6131 22.3764L86.2048 25.3748L84.7783 22.3764H83.398L85.5583 26.4738V29.3512H86.8429V26.4738L89.0032 22.3586H87.6131V22.3764ZM77.3278 24.1838L78.2793 27.079H76.3763L77.3278 24.1822V24.1838ZM78.6124 27.973L79.0873 29.3883H80.4198L77.8225 22.3764H76.7836L74.1681 29.3883H75.5006L76.0036 27.973H78.6124ZM68.6965 25.746H67.2882V23.3447H68.6965C69.0102 23.3593 69.3052 23.4948 69.5172 23.7216C69.7291 23.9483 69.8408 24.2479 69.8278 24.555C69.8396 24.7074 69.8191 24.8605 69.7676 25.0047C69.7161 25.1489 69.6346 25.2812 69.5284 25.3932C69.4222 25.5052 69.2935 25.5945 69.1503 25.6555C69.0071 25.7164 68.8527 25.7478 68.6965 25.7476V25.746ZM68.7625 22.3764H66.0036V29.3883H67.2882V26.6884H68.7625C69.0642 26.7082 69.3669 26.6672 69.6518 26.5678C69.9366 26.4684 70.1976 26.3128 70.4184 26.1107C70.6393 25.9085 70.8154 25.6641 70.9358 25.3926C71.0562 25.1211 71.1183 24.8284 71.1183 24.5324C71.1183 24.2365 71.0562 23.9437 70.9358 23.6722C70.8154 23.4007 70.6393 23.1563 70.4184 22.9542C70.1976 22.752 69.9366 22.5964 69.6518 22.497C69.3669 22.3976 69.0642 22.3566 68.7625 22.3764ZM59.5326 29.3883H60.8172V22.3764H59.531V29.3883H59.5326ZM50.5121 22.3764V29.3883H54.8327V28.4572H51.7968V22.3764H50.5105H50.5121ZM43.2034 24.1838L44.155 27.079H42.1761L43.2034 24.1822V24.1838ZM44.4881 27.973L44.963 29.3883H46.2955L43.6784 22.3764H42.651L40.0339 29.3883H41.3664L41.871 27.973H44.4881ZM53.5366 8.69626H48.0286V6.75971H54.4122V5.54936H48.027V3.09963H45.1741C45.0991 3.09953 45.0249 3.11437 44.956 3.14324C44.8871 3.17211 44.8249 3.2144 44.7732 3.26754C44.7215 3.32069 44.6814 3.38357 44.6554 3.45236C44.6293 3.52115 44.6178 3.59441 44.6217 3.66768V5.53H38.3106V6.74034H44.6381V8.69626H39.2622V9.9066H49.9284C49.2422 11.776 48.0198 13.4121 46.4076 14.6189C45.0341 13.6751 43.8505 12.4912 42.9165 11.1266H40.062C41.223 13.0246 42.7794 14.6621 44.6299 15.9325C42.6276 17.1754 40.4557 18.1349 38.1787 18.7825V20.2155C41.0846 19.6034 43.8749 18.5509 46.4488 17.0961C48.9872 18.5253 51.7289 19.5766 54.5837 20.2155V18.8567C52.3818 18.0886 50.2674 17.0989 48.2744 15.9035C50.8045 14.1464 52.6578 11.6081 53.5366 8.69626ZM71.3895 3.32233H68.5349V6.26589H61.4637V7.45848H68.525V18.0369C68.5125 18.1513 68.4603 18.258 68.3772 18.3393C68.2941 18.4206 68.1851 18.4717 68.0682 18.4839H66.6121V19.6943H70.3324C70.6197 19.6783 70.8904 19.5576 71.0912 19.3559C71.2921 19.1543 71.4085 18.8864 71.4175 18.6049V7.42943H72.5685V6.2675H71.3895V3.32233ZM65.3555 9.44345C65.3046 9.33606 65.2223 9.24589 65.1189 9.1844C65.0155 9.12291 64.8958 9.09287 64.775 9.09809H62.397L64.3001 14.8432H67.1546L65.4412 9.44345H65.3555ZM90.2499 19.5006L89.2407 16.1568C89.208 16.0504 89.1414 15.957 89.0506 15.8902C88.9599 15.8234 88.8496 15.7868 88.7361 15.7857H86.0811L86.8429 18.3645H83.7031V13.3811H89.8591V12.1885H83.7212V9.85981H89.8789V8.66883H74.4716V9.85981H80.6573V12.1885H74.4732V13.3811H80.6573V18.3629H74.4732V19.5555H90.2499V19.499V19.5006ZM58.2958 3.19323L55.0026 10.8297H57.5158V19.9557H60.2747V7.84902H59.2473L61.3317 3.19323H58.2958ZM77.717 5.8463H86.6813V7.57951H89.897V5.50256C89.8997 5.28421 89.8143 5.07364 89.6593 4.91654C89.5043 4.75943 89.2923 4.66847 89.0692 4.66339H83.8927V3.02539H80.5534V4.65532H74.5491V7.57951H77.7648V5.8463H77.717Z" fill="white"/>
</svg>
