<svg width="71" height="70" viewBox="0 0 71 70" fill="none" xmlns="http://www.w3.org/2000/svg">
<path d="M41.1983 3.32422C39.1612 3.36523 37.6983 3.76172 36.7276 4.47266L23.4249 11.5957L16.0284 21.6568C14.4698 24.0631 15.5772 28.7115 20.4444 25.7311L25.7764 18.7037C32.544 12.8672 46.3526 15.5455 39.8038 27.2623C36.5909 34.0436 38.0948 37.3521 42.2374 38.7467L44.1241 32.4029C47.3917 25.0475 53.4893 23.7213 53.2432 17.7877L67.8995 18.8404L67.7628 3.51562L41.1983 3.32422ZM33.8018 17.4596C31.4229 17.4186 29.085 18.4029 27.3897 19.8248L22.044 26.8521C23.5069 28.0143 24.9835 27.3854 26.4463 25.9772C28.169 26.8522 29.5088 25.4986 30.6026 22.7916C31.0538 20.9459 31.7237 19.6471 33.8018 17.4596ZM22.919 30.5846C22.8643 30.5846 22.796 30.5846 22.7413 30.5982C22.2901 30.6939 21.7569 31.1725 21.4014 32.2662C21.0323 33.36 20.9503 34.9186 21.2784 36.5865C21.6065 38.2408 22.2901 39.649 23.0557 40.524C23.794 41.3854 24.4776 41.6314 24.9288 41.5357C25.3936 41.4537 25.9131 40.9615 26.2686 39.8815C26.6378 38.7877 26.7335 37.2154 26.4053 35.5611C26.0635 33.8932 25.3799 32.485 24.628 31.6236C23.9717 30.858 23.3702 30.5846 22.919 30.5846ZM34.212 45.1861C33.1319 45.1998 31.7784 45.5416 30.4522 46.1842C28.9346 46.9361 27.7452 47.9752 27.1026 48.9322C26.46 49.8756 26.4053 50.5865 26.6104 51.0104C26.8155 51.4205 27.4171 51.817 28.5655 51.8717C29.7139 51.94 31.2588 51.6256 32.7764 50.8736C34.294 50.1217 35.4835 49.0963 36.126 48.1393C36.7686 47.1959 36.8233 46.4713 36.6182 46.0611C36.4131 45.6373 35.8116 45.2545 34.6631 45.1998C34.5128 45.1861 34.376 45.1861 34.212 45.1861ZM20.8682 58.2565C20.2256 58.2701 19.6378 58.3658 19.1182 58.5162C17.9561 58.858 17.2862 59.4732 17.0674 60.1979C16.835 60.9361 17.0674 61.8111 17.8467 62.7545C18.6397 63.6842 19.9659 64.5729 21.6065 65.065C23.2335 65.5572 24.8194 65.5436 25.9952 65.1881C27.171 64.8463 27.8409 64.2311 28.0596 63.5065C28.2784 62.7682 28.0596 61.8932 27.2667 60.9498C26.4874 60.0201 25.1612 59.1315 23.5206 58.6393C22.5909 58.3658 21.6885 58.2428 20.8682 58.2565Z" fill="white"/>
</svg>
