<svg width="50" height="55" viewBox="0 0 50 55" fill="none" xmlns="http://www.w3.org/2000/svg">
<path d="M9.09581 48.6616V45.8292C9.11092 45.5909 9.07967 45.3519 9.00416 45.128C8.92865 44.9041 8.81061 44.7005 8.65791 44.5307C8.50521 44.361 8.32137 44.229 8.11863 44.1436C7.9159 44.0581 7.69895 44.0212 7.48223 44.0353C7.1986 44.015 6.9152 44.0787 6.66158 44.2199C6.40796 44.361 6.19341 44.5744 6.04028 44.8378C5.90072 44.5823 5.7011 44.3729 5.46244 44.2316C5.22378 44.0904 4.95491 44.0226 4.68415 44.0353C4.44814 44.0223 4.21311 44.0773 4.00235 44.1948C3.79159 44.3124 3.6124 44.4885 3.48252 44.7057V44.1487H2.58984V48.6616H3.49106V46.1596C3.47157 46.0052 3.48342 45.848 3.52573 45.6992C3.56805 45.5505 3.63978 45.4139 3.73579 45.2992C3.8318 45.1846 3.9497 45.0948 4.08102 45.0362C4.21234 44.9777 4.35382 44.9518 4.4953 44.9606C5.08752 44.9606 5.38797 45.3854 5.38797 46.1502V48.6616H6.28919V46.1596C6.27117 46.0055 6.28403 45.8489 6.32689 45.7009C6.36974 45.5528 6.44155 45.4169 6.53725 45.3026C6.63295 45.1884 6.75024 45.0985 6.88088 45.0394C7.01151 44.9803 7.15232 44.9534 7.29341 44.9606C7.90277 44.9606 8.19459 45.3854 8.19459 46.1502V48.6616H9.09581ZM22.4339 44.1487H20.9748V42.7796H20.0736V44.1487H19.241V45.0456H20.0736V47.1038C20.0736 48.1517 20.4427 48.7749 21.4984 48.7749C21.8928 48.7762 22.2795 48.6551 22.6141 48.4256L22.3567 47.5853C22.1173 47.7424 21.8456 47.8301 21.567 47.8402C21.1207 47.8402 20.9748 47.538 20.9748 47.0849V45.0456H22.4339V44.1487ZM30.0471 44.0353C29.8295 44.0283 29.6141 44.0859 29.4238 44.2023C29.2335 44.3186 29.0752 44.4892 28.9657 44.6962V44.1487H28.0816V48.6616H28.9742V46.1313C28.9742 45.3854 29.266 44.97 29.8497 44.97C30.0407 44.9671 30.2302 45.0056 30.4076 45.0833L30.6822 44.158C30.4784 44.0778 30.2636 44.0363 30.0471 44.0353V44.0353ZM18.5372 44.5074C18.032 44.1769 17.451 44.0131 16.8635 44.0353C15.8249 44.0353 15.1555 44.5829 15.1555 45.4798C15.1555 46.2163 15.6533 46.6695 16.5716 46.8111L16.9922 46.8772C17.4814 46.9526 17.7132 47.0943 17.7132 47.3492C17.7132 47.6985 17.387 47.8969 16.7777 47.8969C16.2875 47.9124 15.8068 47.7461 15.4129 47.4247L14.9924 48.1895C15.5123 48.5889 16.1351 48.7942 16.7691 48.7749C17.9535 48.7749 18.6401 48.1612 18.6401 47.302C18.6401 46.5089 18.0995 46.0935 17.2068 45.9519L16.7863 45.8858C16.4 45.8292 16.0911 45.7443 16.0911 45.4421C16.0911 45.1117 16.3828 44.9134 16.8721 44.9134C17.3214 44.9208 17.7615 45.054 18.151 45.3005L18.5372 44.5074ZM42.4496 44.0353C42.232 44.0283 42.0166 44.0859 41.8263 44.2023C41.636 44.3186 41.4777 44.4892 41.3682 44.6962V44.1487H40.4841V48.6616H41.3767V46.1313C41.3767 45.3854 41.6686 44.97 42.2522 44.97C42.4431 44.9671 42.6327 45.0056 42.8102 45.0833L43.0848 44.158C42.8809 44.0778 42.6661 44.0363 42.4496 44.0353V44.0353ZM30.9483 46.405C30.9364 46.723 30.9852 47.0401 31.0915 47.3361C31.1977 47.632 31.3591 47.9002 31.5653 48.1235C31.7714 48.3467 32.0178 48.52 32.2885 48.6322C32.5592 48.7444 32.8482 48.793 33.137 48.7749C33.6729 48.8045 34.1995 48.6126 34.6133 48.2367L34.1841 47.4436C33.8755 47.7024 33.4993 47.8448 33.1112 47.8496C32.7767 47.8273 32.4626 47.6654 32.2329 47.3969C32.0032 47.1285 31.8753 46.7737 31.8753 46.4051C31.8753 46.0365 32.0032 45.6817 32.2329 45.4133C32.4626 45.1448 32.7767 44.9829 33.1112 44.9606C33.4993 44.9654 33.8755 45.1078 34.1841 45.3666L34.6133 44.5735C34.1995 44.1977 33.6729 44.0057 33.137 44.0353C32.8482 44.0173 32.5592 44.0659 32.2885 44.1781C32.0178 44.2903 31.7715 44.4635 31.5653 44.6867C31.3592 44.9099 31.1978 45.1781 31.0915 45.474C30.9852 45.77 30.9364 46.0871 30.9483 46.405V46.405ZM39.3082 46.405V44.1487H38.4156V44.6962C38.2632 44.4802 38.066 44.3075 37.8406 44.1926C37.6151 44.0776 37.3678 44.0237 37.1195 44.0353C36.5664 44.0652 36.0449 44.3279 35.6631 44.769C35.2812 45.2102 35.0682 45.796 35.0682 46.4051C35.0682 47.0143 35.2812 47.6001 35.6631 48.0413C36.0449 48.4824 36.5664 48.7451 37.1195 48.7749C37.3678 48.7866 37.6151 48.7327 37.8406 48.6177C38.0661 48.5027 38.2632 48.3299 38.4156 48.1139V48.6616H39.3082V46.405ZM35.9865 46.405C36.0004 46.1387 36.0848 45.8827 36.2293 45.6685C36.3739 45.4543 36.5723 45.2914 36.8 45.1997C37.0277 45.1081 37.2749 45.0918 37.5109 45.1528C37.747 45.2138 37.9617 45.3495 38.1285 45.5431C38.2953 45.7367 38.407 45.9798 38.4497 46.2423C38.4924 46.5049 38.4643 46.7755 38.3689 47.0207C38.2735 47.2659 38.115 47.4751 37.9128 47.6224C37.7106 47.7697 37.4737 47.8487 37.2312 47.8496C37.0612 47.8521 36.8926 47.8159 36.736 47.7432C36.5794 47.6705 36.4381 47.5629 36.3212 47.4272C36.2043 47.2915 36.1142 47.1306 36.0566 46.9547C35.999 46.7787 35.9751 46.5916 35.9865 46.405V46.405ZM25.2149 44.0353C24.6582 44.0676 24.1345 44.3357 23.7537 44.7835C23.3729 45.2312 23.1645 45.8238 23.1722 46.4369C23.18 47.05 23.4033 47.636 23.7954 48.0719C24.1874 48.5078 24.7177 48.7598 25.2749 48.7749C25.8873 48.7986 26.4862 48.5734 26.9572 48.1423L26.5194 47.4153C26.1805 47.7141 25.7607 47.8802 25.3264 47.8874C25.0315 47.9147 24.7384 47.8146 24.5093 47.6084C24.2803 47.4023 24.1331 47.1061 24.099 46.7827H27.1461C27.1546 46.66 27.1632 46.5373 27.1632 46.405C27.1547 44.9983 26.365 44.0353 25.2149 44.0353V44.0353ZM25.1977 44.9134C25.4673 44.9076 25.728 45.0196 25.9227 45.2249C26.1173 45.4302 26.2301 45.712 26.2362 46.0086H24.1076C24.1233 45.7056 24.2461 45.4214 24.4498 45.2167C24.6535 45.012 24.9219 44.9032 25.1977 44.9134V44.9134ZM47.5909 46.405V42.3359H46.6982V44.6962C46.5459 44.4802 46.3487 44.3075 46.1232 44.1926C45.8977 44.0776 45.6505 44.0237 45.4022 44.0353C44.8491 44.0651 44.3276 44.3278 43.9457 44.769C43.5638 45.2101 43.3508 45.796 43.3508 46.4051C43.3508 47.0143 43.5638 47.6001 43.9457 48.0413C44.3276 48.4824 44.8491 48.7451 45.4022 48.7749C45.6505 48.7866 45.8977 48.7327 46.1232 48.6177C46.3487 48.5027 46.5459 48.3299 46.6982 48.1139V48.6616H47.5909V46.405ZM49.0789 48.0076C49.1343 48.0072 49.1892 48.0192 49.2403 48.0428C49.2895 48.0653 49.3343 48.098 49.3723 48.139C49.41 48.1799 49.4402 48.2284 49.4612 48.2819C49.4826 48.3369 49.4937 48.3961 49.4937 48.4559C49.4937 48.5157 49.4826 48.5749 49.4612 48.6299C49.4401 48.6832 49.4099 48.7315 49.3723 48.7723C49.3342 48.8132 49.2894 48.846 49.2403 48.8689C49.1893 48.893 49.1344 48.9051 49.0789 48.9047C48.9972 48.9056 48.9171 48.88 48.8486 48.8312C48.7801 48.7823 48.7262 48.7123 48.6936 48.6299C48.6722 48.5749 48.6612 48.5157 48.6612 48.4559C48.6612 48.3961 48.6722 48.3369 48.6936 48.2819C48.7145 48.2285 48.7446 48.1799 48.7821 48.139C48.8201 48.0977 48.8651 48.065 48.9145 48.0428C48.9666 48.0191 49.0225 48.0071 49.0789 48.0076V48.0076ZM49.0789 48.8058C49.1212 48.8061 49.1631 48.7968 49.2019 48.7783C49.2392 48.7605 49.273 48.7351 49.3018 48.7035C49.361 48.6377 49.3943 48.5488 49.3943 48.4561C49.3943 48.3635 49.361 48.2746 49.3018 48.2087C49.2731 48.1772 49.2392 48.152 49.2019 48.1346C49.163 48.1164 49.1211 48.1072 49.0789 48.1076C49.0358 48.1073 48.9932 48.1164 48.9535 48.1346C48.9156 48.1518 48.8811 48.1769 48.852 48.2087C48.7928 48.2745 48.7595 48.3634 48.7595 48.4561C48.7595 48.5488 48.7928 48.6377 48.852 48.7035C48.8812 48.7354 48.9156 48.7608 48.9535 48.7783C48.9931 48.7967 49.0358 48.8061 49.0789 48.8058V48.8058ZM49.1029 48.2461C49.143 48.2432 49.1828 48.2559 49.2154 48.2819C49.2283 48.2936 49.2387 48.3086 49.2455 48.3254C49.2523 48.3423 49.2555 48.3607 49.2548 48.3792C49.2553 48.395 49.2527 48.4108 49.2473 48.4254C49.2419 48.4401 49.2337 48.4533 49.2233 48.4643C49.1985 48.4886 49.167 48.5031 49.1339 48.5056L49.2578 48.6628H49.1609L49.046 48.5067H49.009V48.6628H48.928V48.2461H49.1029ZM49.009 48.3242V48.4353H49.1019C49.1198 48.4363 49.1375 48.4314 49.1529 48.4215C49.1592 48.4169 49.1642 48.4105 49.1675 48.4031C49.1709 48.3957 49.1723 48.3874 49.1718 48.3792C49.1723 48.3711 49.1707 48.363 49.1674 48.3558C49.1641 48.3485 49.1591 48.3423 49.1529 48.3379C49.1375 48.328 49.1198 48.3233 49.1019 48.3242H49.009ZM44.2693 46.405C44.2831 46.1387 44.3675 45.8827 44.5121 45.6686C44.6566 45.4544 44.855 45.2915 45.0827 45.1998C45.3105 45.1082 45.5576 45.0919 45.7936 45.1529C46.0297 45.2139 46.2444 45.3496 46.4111 45.5432C46.5779 45.7368 46.6896 45.9799 46.7323 46.2425C46.775 46.505 46.7469 46.7756 46.6515 47.0208C46.5561 47.266 46.3975 47.4752 46.1953 47.6224C45.9932 47.7697 45.7562 47.8487 45.5138 47.8496C45.3438 47.8521 45.1752 47.8159 45.0186 47.7432C44.862 47.6705 44.7208 47.5629 44.6039 47.4271C44.4869 47.2914 44.3969 47.1305 44.3393 46.9546C44.2817 46.7787 44.2578 46.5916 44.2693 46.405V46.405ZM14.1255 46.405V44.1487H13.2328V44.6962C13.0805 44.4802 12.8833 44.3075 12.6578 44.1926C12.4323 44.0776 12.1851 44.0237 11.9368 44.0353C11.3837 44.0652 10.8622 44.3279 10.4803 44.769C10.0985 45.2102 9.88548 45.796 9.88548 46.4051C9.88548 47.0143 10.0985 47.6001 10.4803 48.0413C10.8622 48.4824 11.3837 48.7451 11.9368 48.7749C12.1851 48.7866 12.4323 48.7327 12.6578 48.6177C12.8833 48.5027 13.0805 48.3299 13.2328 48.1139V48.6616H14.1255V46.405ZM10.8039 46.405C10.8178 46.1387 10.9022 45.8827 11.0467 45.6686C11.1913 45.4544 11.3896 45.2915 11.6174 45.1998C11.8451 45.1082 12.0922 45.0919 12.3283 45.1529C12.5643 45.2139 12.779 45.3496 12.9458 45.5432C13.1126 45.7368 13.2242 45.9799 13.2669 46.2425C13.3096 46.505 13.2815 46.7756 13.1861 47.0208C13.0907 47.266 12.9321 47.4752 12.73 47.6225C12.5278 47.7697 12.2909 47.8487 12.0484 47.8496C11.8784 47.8521 11.7098 47.8159 11.5532 47.7432C11.3966 47.6705 11.2554 47.5629 11.1385 47.4271C11.0216 47.2914 10.9315 47.1305 10.8739 46.9546C10.8163 46.7787 10.7925 46.5916 10.8039 46.405V46.405Z" fill="white"/>
<path d="M31.7604 9.75586H18.2402V36.4816H31.7604V9.75586Z" fill="#E5E4E4"/>
<path d="M19.0987 23.1198C19.0966 20.546 19.6268 18.0053 20.6493 15.6901C21.6717 13.375 23.1596 11.3461 25.0003 9.75697C22.7209 7.78611 19.9833 6.56047 17.1006 6.22012C14.2179 5.87977 11.3062 6.43846 8.69848 7.83231C6.09075 9.22617 3.89212 11.399 2.35392 14.1023C0.81572 16.8057 0 19.9306 0 23.1198C0 26.3091 0.81572 29.434 2.35392 32.1374C3.89212 34.8407 6.09075 37.0135 8.69848 38.4074C11.3062 39.8013 14.2179 40.3599 17.1006 40.0196C19.9833 39.6792 22.7209 38.4536 25.0003 36.4827C23.1596 34.8936 21.6717 32.8647 20.6493 30.5496C19.6268 28.2344 19.0966 25.6937 19.0987 23.1198V23.1198Z" fill="#AEAEB2"/>
<path d="M50 23.1198C50.0001 26.309 49.1845 29.4339 47.6464 32.1373C46.1083 34.8407 43.9097 37.0135 41.302 38.4074C38.6944 39.8012 35.7828 40.3599 32.9001 40.0196C30.0174 39.6792 27.2799 38.4536 25.0005 36.4827C26.8396 34.892 28.3263 32.8628 29.3486 30.548C30.3709 28.2332 30.9021 25.6933 30.9021 23.1198C30.9021 20.5464 30.3709 18.0065 29.3486 15.6917C28.3263 13.3769 26.8396 11.3477 25.0005 9.75697C27.2799 7.78611 30.0174 6.56046 32.9001 6.22012C35.7828 5.87977 38.6944 6.43847 41.302 7.83234C43.9097 9.22621 46.1083 11.399 47.6464 14.1024C49.1845 16.8058 50.0001 19.9307 50 23.1198V23.1198Z" fill="white"/>
<path d="M48.526 33.6519V33.1047H48.7266V32.9933H48.2158V33.1047H48.4165V33.6519H48.526ZM49.5178 33.6519V32.9922H49.3612L49.1811 33.446L49.0009 32.9922H48.8443V33.6519H48.9548V33.1543L49.1237 33.5833H49.2384L49.4073 33.1532V33.6519H49.5178Z" fill="white"/>
</svg>
