<svg width="94" height="37" viewBox="0 0 94 37" fill="none" xmlns="http://www.w3.org/2000/svg">
<g clip-path="url(#clip0_1589_23622)">
<path d="M90.8024 9.78852C90.4027 9.99 89.6913 10.3777 88.8797 10.5776C88.4435 10.3502 87.9434 10.0907 87.3446 9.93352L86.539 10.7791C87.4038 11.0264 87.8416 11.1989 88.3021 11.4049L85.6103 11.3912V18.7054H86.6469V16.3823H88.6122V18.7054H89.6518V16.3823H91.6125V18.7054H92.6932V11.3698L90.164 11.3912C90.0485 11.2874 89.8905 11.2172 89.9057 11.2294C90.8252 10.8875 91.8101 10.4143 92.7753 9.65878V8.75977L92.7601 8.76892H85.2471V9.68167H91.0046L90.8024 9.78547V9.78852ZM88.6122 15.3826H86.6469V14.3874H88.6122V15.3826ZM88.6 13.3769L86.6469 13.3586V12.3848H88.6122L88.6 13.3754V13.3769ZM91.5852 15.3826H89.6655V14.3874H91.5852V15.3826ZM91.5958 12.3772V13.3769H89.6503V12.3772H91.5958Z" fill="white"/>
<path d="M52.4712 20.0508L53.5033 20.6522C55.9792 16.3556 56.3455 12.7519 56.3455 10.9844H55.1585C55.1585 12.6328 54.8074 15.9984 52.4697 20.0493L52.4712 20.0508Z" fill="white"/>
<path d="M62.1743 8.50934H55.6401V9.70141H61.0009C61.159 12.0596 62.153 16.9393 64.2916 20.6529L65.3221 20.0515C63.0969 16.1884 62.1758 11.0156 62.1758 9.10308V8.50781L62.1743 8.50934Z" fill="white"/>
<path d="M69.7165 10.5518L67.8683 8.69727L67.1372 9.43449L68.987 11.289L69.7165 10.5518Z" fill="white"/>
<path d="M75.1424 19.3603V17.9149H78.962V16.8754H75.1424V16.1825H77.8388V15.14H75.1424V14.4089H78.2522V13.3694H76.1957L77.0241 12.0751H78.775V11.0311H75.1409V10.3351H78.2355V9.29716H75.1409V8.13867H74.1013V9.29716H71.0006V10.3351H74.1013V11.0311H70.4337V12.0751H72.0144L72.8488 13.3694H70.7863V14.4089H74.1013V15.14H71.4034V16.1825H74.1013V16.8754H70.3212V17.9149H74.1013V19.3786L73.7274 19.3832C72.3305 19.3908 71.0918 19.2092 69.8698 18.4308V13.3664H66.7266V14.3936H68.8453V17.9912L66.9242 19.9251L67.6461 20.6547L69.125 19.1726L69.1037 19.2107C70.7149 20.3082 72.7607 20.4257 74.9707 20.4257H78.8799L79.421 19.2245L77.3858 19.3374L75.1424 19.3603ZM73.2531 12.0736H75.7899L74.9555 13.3679H74.083L73.2516 12.0736H73.2531Z" fill="white"/>
<path d="M84.3045 10.5518L82.4562 8.69727L81.7236 9.43449L83.5749 11.289L84.3045 10.5518Z" fill="white"/>
<path d="M91.968 19.3382L88.3217 19.384C86.9158 19.3916 85.6816 19.21 84.4596 18.4316V13.3672H81.3179V14.3944H83.4382V17.992L81.5094 19.9259L82.2374 20.6555L83.7118 19.1734L83.692 19.2115C85.3046 20.309 87.3444 20.4265 89.5528 20.4265H93.4621L94.0002 19.2253L91.968 19.3382Z" fill="white"/>
<path d="M43.4367 23.2154C43.4245 23.1971 43.4093 23.1711 43.385 23.1574C43.2771 23.0429 43.1616 22.9437 43.043 22.846C43.0141 22.8185 42.9913 22.8017 42.9716 22.7758C42.0991 22.0737 40.944 21.6387 39.494 21.6387C38.0439 21.6387 36.8888 22.0737 36.0164 22.7758C35.992 22.8017 35.9662 22.8185 35.9434 22.846C35.8279 22.9422 35.7078 23.0429 35.6045 23.1574C35.5817 23.1711 35.5634 23.1971 35.5452 23.2154C34.4037 24.4013 33.8672 26.1124 33.8672 27.8173C33.8672 29.5222 34.4037 31.2393 35.5482 32.4253C35.568 32.4482 35.5817 32.465 35.6029 32.4879C35.7063 32.5963 35.8249 32.7031 35.9419 32.7993C35.9647 32.8176 35.9905 32.842 36.0148 32.8603C36.8873 33.567 38.0409 33.9959 39.4924 33.9959C40.944 33.9959 42.0976 33.567 42.97 32.8603C42.9898 32.842 43.0126 32.8176 43.0415 32.7993C43.16 32.7031 43.2755 32.5978 43.3835 32.4879C43.4063 32.465 43.4215 32.4482 43.4351 32.4253C44.5827 31.2393 45.1131 29.5237 45.1131 27.8173C45.1131 26.1108 44.5812 24.4013 43.4351 23.2154H43.4367ZM39.494 32.7077C38.1747 32.7077 37.0925 32.1765 36.3629 31.1585C35.7428 30.2945 35.4038 29.1071 35.4038 27.8173C35.4038 26.5275 35.7428 25.3477 36.3629 24.4822C37.0925 23.4703 38.1747 22.9345 39.494 22.9345C40.8133 22.9345 41.8955 23.4703 42.622 24.4822C43.2451 25.3477 43.5826 26.5336 43.5826 27.8173C43.5826 29.1009 43.2451 30.2945 42.622 31.1585C41.8955 32.175 40.8133 32.7077 39.494 32.7077Z" fill="white"/>
<path d="M50.0027 32.7059C49.1834 32.7059 48.5177 32.3686 48.0769 31.7229C47.7045 31.175 47.4932 30.4042 47.4932 29.5586C47.4932 28.3039 47.8444 26.196 50.1653 26.196C51.3159 26.196 52.0698 26.8005 52.2917 27.901H53.7128C53.5228 26.051 52.1883 24.9902 50.0558 24.9902C47.5799 24.9902 46.0493 26.7394 46.0493 29.5601C46.0493 32.3808 47.5677 33.9178 50.0209 33.9178C52.1093 33.9178 53.4362 32.7471 53.7599 30.6224H52.3585C52.1686 31.9458 51.3113 32.7089 50.0011 32.7089L50.0027 32.7059Z" fill="white"/>
<path d="M56.9473 22.6207H55.5794V25.1849H54.1309V26.3953H55.5794V31.8581C55.5794 33.4577 56.1736 33.7172 57.5933 33.7172H58.6481V32.5068H58.0219C57.1297 32.5068 56.9488 32.374 56.9488 31.7253V26.3938H58.6481V25.1834H56.9488V22.6191L56.9473 22.6207Z" fill="white"/>
<path d="M59.4414 29.4624C59.4414 32.1686 61.0662 33.9163 63.5665 33.9163C66.0668 33.9163 67.6901 32.1686 67.6901 29.4624C67.6901 26.7562 66.0698 24.9902 63.5665 24.9902C61.0632 24.9902 59.4414 26.7455 59.4414 29.4624ZM66.237 29.4624C66.237 31.4054 65.1609 32.7074 63.5665 32.7074C61.9721 32.7074 60.8945 31.4054 60.8945 29.4624C60.8945 27.5194 61.9645 26.196 63.5665 26.196C65.1685 26.196 66.237 27.5056 66.237 29.4624Z" fill="white"/>
<path d="M70.5264 26.336L70.5234 26.3498H70.4596V25.1867H69.0962V36.999H70.4596V32.5742H70.5234L70.5264 32.5833C71.1344 33.5663 72.3428 33.9158 73.2623 33.9158C75.6197 33.9158 77.1397 32.1743 77.1397 29.4742C77.1397 27.4045 76.1167 24.9883 73.2289 24.9883C71.9354 24.9883 70.9429 25.4798 70.5249 26.3345L70.5264 26.336ZM75.6912 29.378C75.6912 30.0267 75.5924 30.9471 75.1273 31.6675C74.6865 32.359 74.0056 32.707 73.1179 32.707C72.2303 32.707 71.5114 32.3727 71.0371 31.7118C70.6298 31.1425 70.4125 30.3579 70.4125 29.4452C70.4125 27.8715 71.101 26.1971 73.0343 26.1971C74.9677 26.1971 75.6927 27.7967 75.6927 29.3796L75.6912 29.378Z" fill="white"/>
<path d="M79.8665 30.9643V25.1855H78.4985V30.7979C78.4985 31.7977 78.7037 32.5333 79.1187 33.0431C79.599 33.6308 80.3528 33.9147 81.4153 33.9147C82.6707 33.9147 83.5994 33.3927 84.1755 32.367L84.18 32.3578H84.2378V33.7178H85.5252V25.1855H84.1557V30.0042C84.1557 31.6954 83.2058 32.7058 81.6144 32.7058C80.552 32.7058 79.868 32.0205 79.868 30.9643H79.8665Z" fill="white"/>
<path d="M93.1382 29.5226C92.6123 29.1578 91.9101 28.9655 91.2276 28.8174C91.0468 28.7671 90.8568 28.7289 90.6774 28.6846C89.5192 28.4297 88.4264 28.1932 88.4264 27.3064C88.4264 26.3036 89.7077 26.1937 90.2564 26.1937C90.8051 26.1937 92.1244 26.3341 92.2505 27.6345H93.617C93.5166 25.8502 92.3767 24.9863 90.1454 24.9863C89.346 24.9863 88.5647 25.1924 88.0069 25.5557C87.3305 25.9907 86.9764 26.6256 86.9764 27.4025C86.9764 29.0372 88.4066 29.5012 89.7533 29.805C89.884 29.8309 90.0193 29.8676 90.15 29.8935C91.3857 30.1591 92.5515 30.4109 92.5515 31.4107C92.5515 32.4791 91.4191 32.7035 90.4753 32.7035C89.6347 32.7035 88.2288 32.4898 88.1665 31.0505H86.7925C86.8989 33.5415 89.0936 33.9139 90.3886 33.9139C91.2383 33.9139 94 33.7216 94 31.2306C94 30.4812 93.7188 29.9256 93.1382 29.5211V29.5226Z" fill="white"/>
<path d="M4.78174 31.1602C4.78901 31.1602 4.79629 31.163 4.80357 31.1645C4.79775 31.163 4.79047 31.1616 4.78174 31.1602Z" fill="white"/>
<path d="M4.82715 31.1719C4.82715 31.1719 4.84025 31.1748 4.84752 31.1777C4.84025 31.1762 4.83297 31.1762 4.82715 31.1719Z" fill="white"/>
<path d="M4.59033 31.1055C4.60553 31.1085 4.61921 31.1131 4.63289 31.1192C4.61921 31.1116 4.60553 31.1085 4.59033 31.1055Z" fill="white"/>
<path d="M4.64648 31.123C4.6556 31.1246 4.66472 31.1292 4.67536 31.1307C4.66472 31.1307 4.6556 31.1261 4.64648 31.123Z" fill="white"/>
<path d="M4.69189 31.1367C4.70101 31.1382 4.71013 31.1398 4.71773 31.1443C4.71013 31.1413 4.70253 31.1398 4.69189 31.1367Z" fill="white"/>
<path d="M4.73779 31.1465C4.74691 31.1495 4.75451 31.1541 4.76211 31.1556C4.75451 31.1556 4.74843 31.1511 4.73779 31.1465Z" fill="white"/>
<path d="M4.87451 31.1855C4.87451 31.1855 4.88615 31.1899 4.89197 31.1899C4.88615 31.1899 4.88033 31.1884 4.87451 31.1855Z" fill="white"/>
<path d="M10.5059 31.2139C10.5469 31.2062 10.5879 31.1971 10.632 31.1895C10.5895 31.1971 10.5469 31.2078 10.5059 31.2139Z" fill="white"/>
<path d="M5.29834 31.2852L5.30018 31.287C5.30018 31.287 5.30018 31.2852 5.29834 31.2852Z" fill="white"/>
<path d="M4.91992 31.1973C4.91992 31.1973 4.93156 31.2002 4.93739 31.2002C4.93156 31.2002 4.92574 31.2002 4.91992 31.1973Z" fill="white"/>
<path d="M10.7549 31.1621C10.7549 31.1621 10.7549 31.1636 10.7534 31.1636C10.7549 31.1636 10.7549 31.1621 10.758 31.1621H10.7549Z" fill="white"/>
<path d="M4.96582 31.2109C4.96582 31.2109 4.97746 31.2138 4.98037 31.2138C4.97746 31.2138 4.97164 31.2124 4.96582 31.2109Z" fill="white"/>
<path d="M32.1875 11.0095C32.1875 11.0095 32.1951 11.008 32.1996 11.008C32.2148 11.008 32.2285 11.0064 32.2437 11.0049C32.2969 11.0003 32.3531 10.9942 32.4109 10.9896C32.4155 10.9896 32.4246 10.9881 32.4307 10.9881C32.534 10.9774 32.6419 10.9683 32.7605 10.9576C32.7818 10.9545 32.8076 10.9515 32.8304 10.9515C33.7135 10.8691 34.5449 10.7637 35.3383 10.6432H35.3474L35.3504 10.6416C35.5951 9.84336 35.8262 9.15345 36.1438 8.48644C38.2292 4.09211 40.9863 2.08803 43.0124 1.37675C44.4168 0.876112 47.1025 0.581528 47.9567 1.75681C47.6147 1.12033 46.9961 0.612055 46.4353 0.315945C46.3851 0.289997 46.3365 0.270155 46.2848 0.245734L46.2742 0.239628C44.1767 -0.228958 41.7858 0.0595202 40.2248 0.549475C38.5924 1.09896 36.7108 2.04376 34.7941 3.60215C34.6543 3.71205 34.519 3.82805 34.3974 3.94253C34.3762 3.95016 34.3625 3.96848 34.3473 3.98374C34.2227 4.09211 34.0965 4.20048 33.9825 4.31343C33.9779 4.31953 33.9719 4.32106 33.9627 4.32869C33.7135 4.56527 33.4703 4.80796 33.2469 5.05065C33.2256 5.06286 33.2119 5.07813 33.2028 5.09186C33.1009 5.20023 33.0021 5.30708 32.9064 5.41697C32.8942 5.42918 32.8806 5.44445 32.8638 5.45818C32.6526 5.7024 32.4428 5.94509 32.2528 6.18777C32.2391 6.19999 32.2315 6.2183 32.2133 6.23204C32.1327 6.3343 32.0537 6.43809 31.9747 6.54494C31.9564 6.56631 31.9382 6.59225 31.9215 6.61362C31.844 6.72505 31.7604 6.83647 31.6783 6.94942C31.6768 6.95858 31.6722 6.96468 31.6661 6.96773C31.581 7.08831 31.5005 7.21042 31.4138 7.33253C31.4017 7.34779 31.3925 7.36611 31.3743 7.3829C31.312 7.48974 31.2512 7.5859 31.1889 7.68511C31.1646 7.71564 31.1509 7.74464 31.1281 7.77822C31.0642 7.86827 31.0141 7.96291 30.9533 8.05449C30.9442 8.08196 30.9229 8.10028 30.9092 8.1308C30.8393 8.24223 30.7694 8.36433 30.7025 8.47576C30.6995 8.48949 30.6873 8.50628 30.6782 8.52307C30.6235 8.62229 30.5687 8.71997 30.5171 8.81918C30.4973 8.85582 30.4821 8.89092 30.4578 8.9245C30.4198 9.00692 30.3712 9.08477 30.3301 9.16872C30.3149 9.20382 30.2982 9.23282 30.28 9.2664C30.2268 9.38088 30.1675 9.48925 30.1112 9.59762C29.9714 9.87541 29.8088 10.231 29.634 10.6203C29.5458 10.8385 29.4592 11.0537 29.3726 11.2674C30.5763 11.1789 30.7557 11.153 32.1875 11.0141V11.0095Z" fill="white"/>
<path d="M49.9781 2.75302C49.7547 2.35617 49.4841 2.00664 49.1877 1.69984C48.4597 0.988568 47.5128 0.539824 46.4807 0.284925H46.4762C46.4762 0.284925 46.4731 0.281872 46.4716 0.281872C46.426 0.272714 46.3561 0.257451 46.3135 0.246767C46.3135 0.246767 46.313 0.246258 46.312 0.24524C46.2999 0.24524 46.2908 0.242188 46.2832 0.242188H46.2755L46.2862 0.246767C46.3379 0.269662 46.3865 0.29103 46.4367 0.316978C47.2681 0.753511 48.2165 1.64947 48.218 2.74691C48.2104 2.89039 48.1891 3.04455 48.1511 3.20787C48.025 3.74361 47.7909 4.29157 47.4474 4.838C47.0006 5.53553 46.3713 6.22849 45.5384 6.87871C43.6522 8.36537 40.7415 9.65207 36.6286 10.4229C36.2091 10.5022 35.7926 10.5725 35.3518 10.6427C35.3518 10.6427 35.3503 10.6427 35.3488 10.6442H35.3397C34.5478 10.7648 33.7149 10.8701 32.8318 10.9525C30.7844 11.1433 30.7358 11.1662 29.3663 11.2654C29.3679 11.2608 29.3679 11.2578 29.3724 11.2578H29.342C29.1672 11.27 28.9636 11.2914 28.7295 11.3051C26.8721 11.4379 19.9245 11.0578 17.9912 11.0578C15.3921 11.0578 12.4967 11.386 9.7927 12.2514C6.72244 13.2176 3.88625 14.8767 1.9985 17.5051C1.1443 18.6834 0.410176 20.2571 0.133549 21.7147C-0.149158 23.2212 0.046913 24.7384 0.562169 26.1732C0.621446 26.3395 0.691363 26.4998 0.768879 26.6555C1.36165 28.0246 2.44536 29.6578 4.45319 31.0559L4.55806 31.0956C4.57174 31.0987 4.5839 31.1048 4.59454 31.1078C4.60974 31.1109 4.62342 31.1155 4.6371 31.1216C4.64014 31.1216 4.64622 31.1216 4.65078 31.1246C4.6599 31.1261 4.66902 31.1307 4.67966 31.1323C4.68422 31.1338 4.6903 31.1353 4.69638 31.1399C4.70549 31.1414 4.71461 31.1429 4.72221 31.1475C4.72829 31.1475 4.73589 31.149 4.74197 31.1506C4.75109 31.1536 4.75869 31.1582 4.76629 31.1597C4.77541 31.1612 4.78149 31.1628 4.78757 31.1658C4.79517 31.1658 4.80277 31.1689 4.81037 31.1704C4.81949 31.1719 4.82709 31.1765 4.83469 31.1765C4.84077 31.1796 4.84837 31.1796 4.85597 31.1826C4.86357 31.1841 4.87117 31.1887 4.88181 31.1902C4.88637 31.1933 4.89397 31.1948 4.90005 31.1948C4.90917 31.1979 4.9198 31.2009 4.9274 31.2025C4.93348 31.204 4.93956 31.2055 4.94564 31.2055C4.95476 31.2116 4.96388 31.2131 4.97452 31.2147C4.9806 31.2147 4.98668 31.2177 4.98972 31.2177C5.00036 31.2177 5.01404 31.2223 5.02316 31.2284H5.03228C5.07332 31.2391 5.11436 31.2498 5.15843 31.2589C5.20555 31.2711 5.25723 31.2818 5.30587 31.291C5.30739 31.291 5.30739 31.2925 5.30739 31.2925C5.32259 31.2956 5.33931 31.3001 5.3545 31.3032H5.35603C5.37426 31.3063 5.38946 31.3078 5.40466 31.3124H5.4077C5.42594 31.3185 5.43962 31.32 5.45634 31.323H5.45786C5.4761 31.3261 5.4913 31.3291 5.50802 31.3322C5.53538 31.3398 5.56122 31.3429 5.58857 31.3475C5.59769 31.3475 5.60681 31.3536 5.61897 31.3536C5.63721 31.3566 5.65393 31.3612 5.67065 31.3612C5.68281 31.3627 5.69497 31.3658 5.70865 31.3673C5.72385 31.3704 5.74057 31.3719 5.75729 31.3765C5.77097 31.378 5.7816 31.3795 5.7968 31.3826C5.812 31.3826 5.8272 31.3856 5.84392 31.3902C5.85608 31.3902 5.86824 31.3933 5.88344 31.3978C5.89864 31.3978 5.91688 31.4009 5.9336 31.4024C5.94576 31.4039 5.95944 31.4085 5.97312 31.4085C5.98983 31.4116 6.00655 31.4131 6.02479 31.4146C6.03695 31.4161 6.05063 31.4177 6.06127 31.4207C6.07799 31.4223 6.09927 31.4253 6.11751 31.4268C6.12967 31.4284 6.14031 31.4284 6.15399 31.4299C6.18287 31.4329 6.21022 31.436 6.2391 31.439H6.24366C6.27254 31.4421 6.2999 31.4467 6.32878 31.4497C6.3607 31.4513 6.39414 31.4528 6.42453 31.4574C6.44885 31.4604 6.47165 31.4619 6.49445 31.4635H6.51725C6.53549 31.465 6.55525 31.4665 6.57349 31.4696C8.05694 31.6085 9.40967 31.4482 10.5086 31.2223C10.5496 31.2147 10.5907 31.2055 10.6347 31.1979C10.6758 31.1887 10.7138 31.1826 10.7548 31.1735C10.7563 31.1735 10.7563 31.1719 10.7563 31.1719C10.5496 31.2131 10.1225 31.2513 9.70758 31.262C9.58903 31.2696 9.47047 31.2711 9.35192 31.2711C9.24248 31.2696 9.13761 31.2666 9.04337 31.2605C7.03403 31.1582 5.50042 30.2164 4.57934 28.7374C4.24952 28.162 3.98657 27.5102 3.81938 26.7807C3.81938 26.7776 3.81482 26.7776 3.81482 26.7761C3.79354 26.6723 3.77682 26.567 3.75554 26.4647C3.74338 26.4327 3.74338 26.3975 3.7373 26.3624C3.72058 26.2678 3.70386 26.1701 3.68866 26.0755C3.68562 26.0465 3.68106 26.0236 3.67954 25.9915C3.63394 25.6298 3.60355 25.2513 3.60355 24.8544C3.60963 23.151 4.13704 21.1149 5.85304 19.0223C7.79399 16.6656 10.2821 15.1164 12.8614 14.1426C15.7919 13.036 18.8378 12.6651 21.329 12.6773C21.3381 12.6773 21.3411 12.6803 21.3518 12.6803C21.5159 12.6803 21.6831 12.6803 21.8518 12.6849C22.3291 12.6971 22.7835 12.7215 23.2106 12.7582C24.4661 12.8726 25.5756 13.0299 26.5818 13.2054C27.0044 13.2756 27.4239 13.358 27.8419 13.4374C28.0197 13.471 28.196 13.5061 28.3723 13.5397C30.143 13.8831 31.9761 14.225 34.145 14.3578C34.7484 14.3959 35.3746 14.4158 36.0373 14.4158H36.0723C43.3375 14.4158 50.086 11.1143 50.5253 5.48669C50.5435 5.30811 50.5496 5.12647 50.5526 4.94026V4.88989C50.4964 4.05498 50.2942 3.35439 49.9796 2.7637L49.9781 2.75302Z" fill="white"/>
<path d="M28.3709 13.5265C27.3693 15.7473 21.9143 27.3963 12.6929 30.6276C12.0651 30.8474 11.4177 31.0275 10.755 31.1618H10.758C10.758 31.1618 10.755 31.1633 10.7534 31.1633C10.7124 31.171 10.6744 31.1786 10.6334 31.1878C10.5908 31.1954 10.5483 31.2061 10.5072 31.2122C9.40831 31.4381 8.05558 31.5984 6.57213 31.4595C6.55541 31.4579 6.53565 31.4549 6.51589 31.4534H6.49309C6.47029 31.4518 6.44749 31.4503 6.42317 31.4472C6.42317 31.4472 6.41557 31.4457 6.41101 31.4457C6.38517 31.4442 6.36086 31.4427 6.33502 31.4411H6.32742C6.29854 31.4381 6.26966 31.4335 6.2423 31.4305H6.23774C5.97631 31.4045 5.73009 31.3694 5.50362 31.3251C5.4869 31.3221 5.47018 31.3206 5.45346 31.316H5.45194C5.4337 31.3129 5.42002 31.3114 5.4033 31.3053H5.40026C5.38506 31.3022 5.36834 31.3007 5.35314 31.2961H5.34858C5.33338 31.2931 5.31818 31.2885 5.30147 31.2855C5.30147 31.2855 5.30147 31.2839 5.29995 31.2839C5.20571 31.2641 5.11603 31.2458 5.02636 31.2229H5.01724C5.00812 31.2168 4.99444 31.2137 4.9838 31.2122C4.98076 31.2122 4.97468 31.2107 4.9686 31.2091C4.95948 31.2076 4.94884 31.2046 4.93972 31.2C4.93364 31.2 4.92756 31.2 4.92148 31.1969C4.91388 31.1969 4.90324 31.1939 4.89412 31.1893C4.88805 31.1893 4.88197 31.1878 4.87589 31.1847C4.86677 31.1832 4.85917 31.1801 4.85005 31.1771C4.84245 31.1756 4.83485 31.1756 4.82877 31.171C4.82117 31.171 4.81357 31.1664 4.80445 31.1649C4.79837 31.1633 4.79077 31.1618 4.78165 31.1603C4.77557 31.1588 4.76949 31.1572 4.76037 31.1542C4.75277 31.1542 4.74669 31.1496 4.73605 31.145C4.72997 31.1435 4.72237 31.142 4.71629 31.142C4.70869 31.1389 4.70109 31.1374 4.69045 31.1343C4.68437 31.1313 4.67829 31.1298 4.67373 31.1267C4.6631 31.1267 4.65398 31.1221 4.64486 31.1191C4.6403 31.1176 4.63422 31.116 4.63118 31.116C4.6175 31.1084 4.60382 31.1053 4.58862 31.1023C4.57798 31.0992 4.56582 31.0931 4.55214 31.0901L4.44727 31.0473C4.44727 31.0473 4.48982 31.084 4.57038 31.1481C5.19355 31.6274 8.15285 33.6788 13.12 33.7291H13.1458C13.2021 33.7306 13.2568 33.7307 13.3115 33.7307C15.7616 33.7307 19.2271 32.9003 22.8703 30.6078C28.9151 26.8011 32.1069 19.7707 34.0114 14.6987C34.0448 14.6071 34.0813 14.5201 34.1148 14.4301C34.1224 14.4011 34.133 14.3736 34.1436 14.3431C31.9747 14.2103 30.1401 13.8653 28.3709 13.5234V13.5265Z" fill="white"/>
</g>
<defs>
<clipPath id="clip0_1589_23622">
<rect width="94" height="37" fill="white"/>
</clipPath>
</defs>
</svg>
