<svg width="76" height="52" viewBox="0 0 76 52" fill="none" xmlns="http://www.w3.org/2000/svg">
<path fill-rule="evenodd" clip-rule="evenodd" d="M65.0854 7.8103L50.6019 7.80664C50.6001 7.80664 50.5981 7.80664 50.5981 7.80664C50.587 7.80664 50.576 7.80859 50.5651 7.80859C48.5754 7.86834 46.0972 9.43241 45.6459 11.361L38.7965 41.0647C38.3452 43.0113 39.573 44.5953 41.5483 44.6244H56.7638C58.709 44.5301 60.5992 42.984 61.0428 41.0773L67.8924 11.3735C68.351 9.40705 67.0935 7.8103 65.0854 7.8103" fill="white"/>
<path fill-rule="evenodd" clip-rule="evenodd" d="M38.7967 41.0644L45.6461 11.3608C46.0975 9.43216 48.5756 7.86809 50.5653 7.80835L44.8067 7.80469L34.4314 7.80273C32.4362 7.84273 29.9258 9.41777 29.4746 11.3608L22.6232 41.0644C22.1702 43.011 23.3998 44.595 25.3739 44.6242H41.5485C39.5733 44.595 38.3454 43.011 38.7967 41.0644" fill="white"/>
<path fill-rule="evenodd" clip-rule="evenodd" d="M22.6229 41.0659L29.4743 11.3622C29.9254 9.41923 32.4359 7.84419 34.4311 7.8042L21.1398 7.80078C19.1334 7.80078 16.5609 9.39387 16.1024 11.3622L9.25099 41.0659C9.2093 41.2471 9.18616 41.4248 9.17236 41.5986V42.1497C9.30649 43.5687 10.4122 44.602 12.0017 44.6256H25.3736C23.3995 44.5965 22.1699 43.0125 22.6229 41.0659" fill="white"/>
<path fill-rule="evenodd" clip-rule="evenodd" d="M34.7114 29.4467H34.9629C35.1941 29.4467 35.3496 29.3707 35.4225 29.2202L36.0761 28.2614H37.8264L37.4614 28.892H39.5601L39.2939 29.8582H36.7966C36.509 30.2823 36.1549 30.4816 35.7292 30.458H34.4285L34.7114 29.4467H34.7114ZM34.4241 30.8314H39.0221L38.729 31.8809H36.8799L36.5977 32.894H38.3971L38.104 33.9434H36.3046L35.8866 35.4403C35.7831 35.6906 35.9192 35.8031 36.2927 35.7775H37.7591L37.4874 36.7528H34.6719C34.1383 36.7528 33.9552 36.4535 34.1226 35.8537L34.657 33.9434H33.5068L33.799 32.894H34.9494L35.2313 31.8809H34.1318L34.4241 30.8314H34.4241ZM41.7627 28.2543L41.6903 28.8687C41.6903 28.8687 42.5577 28.2305 43.3454 28.2305H46.2562L45.143 32.1798C45.0507 32.6313 44.6549 32.8558 43.9557 32.8558H40.6566L39.8838 35.6289C39.8392 35.7775 39.9022 35.8537 40.0686 35.8537H40.7178L40.4792 36.7145H38.8288C38.1954 36.7145 37.9319 36.5278 38.0364 36.1528L40.2201 28.2543H41.7627H41.7627H41.7627ZM44.2278 29.3707H41.6298L41.319 30.4363C41.319 30.4363 41.7517 30.1302 42.4748 30.1192C43.1958 30.1081 44.0188 30.1192 44.0188 30.1192L44.2278 29.3707V29.3707ZM43.2866 31.8427C43.4786 31.8683 43.5861 31.7938 43.5991 31.6179L43.758 31.0562H41.156L40.9378 31.8427H43.2866V31.8427ZM41.5314 33.1187H43.0312L43.0033 33.7548H43.4027C43.6044 33.7548 43.7045 33.6914 43.7045 33.5665L43.8226 33.155H45.0692L44.9027 33.7548C44.7619 34.2551 44.3887 34.5161 43.7821 34.5416H42.9832L42.9794 35.6289C42.9648 35.8031 43.1255 35.8918 43.4564 35.8918H44.2073L43.965 36.7527H42.1639C41.659 36.7763 41.4115 36.5405 41.4167 36.0404L41.5314 33.1187V33.1187Z" fill="#DADADA"/>
<path fill-rule="evenodd" clip-rule="evenodd" d="M23.3573 22.9939C23.1539 23.9708 22.6823 24.7211 21.9509 25.254C21.2261 25.7778 20.2912 26.0405 19.1466 26.0405C18.0694 26.0405 17.2797 25.7723 16.7758 25.234C16.4263 24.8515 16.2524 24.3658 16.2524 23.7786C16.2524 23.5358 16.2821 23.2748 16.3413 22.9939L17.5608 17.2305H19.4027L18.1998 22.9286C18.1627 23.0863 18.1479 23.2331 18.1499 23.3655C18.1479 23.6573 18.2219 23.8965 18.3717 24.0831C18.5899 24.3605 18.944 24.4981 19.4369 24.4981C20.0036 24.4981 20.4706 24.3623 20.833 24.0885C21.1955 23.8167 21.4322 23.4307 21.5385 22.9286L22.7452 17.2305H24.5778L23.3573 22.9939" fill="#DADADA"/>
<path fill-rule="evenodd" clip-rule="evenodd" d="M31.0924 20.7255H32.5349L31.405 25.8692H29.9653L31.0924 20.7255M31.5464 18.8516H33.0017L32.7299 20.1001H31.2746L31.5464 18.8516" fill="#DADADA"/>
<path fill-rule="evenodd" clip-rule="evenodd" d="M33.8118 25.4781C33.4345 25.1247 33.244 24.648 33.2422 24.0427C33.2422 23.9393 33.2486 23.8216 33.2626 23.6928C33.2765 23.5623 33.2941 23.4354 33.319 23.3177C33.49 22.4822 33.8544 21.8189 34.4156 21.3295C34.9759 20.8383 35.6519 20.5918 36.4433 20.5918C37.0915 20.5918 37.6055 20.7694 37.982 21.1247C38.3581 21.4818 38.5467 21.9638 38.5467 22.5765C38.5467 22.6815 38.5385 22.803 38.5246 22.9334C38.5079 23.0658 38.4878 23.1926 38.4644 23.3177C38.2972 24.1405 37.9339 24.7966 37.3726 25.277C36.8113 25.7609 36.1373 26.0018 35.3513 26.0018C34.7004 26.0018 34.1881 25.8279 33.8118 25.4781M36.5608 24.4595C36.8151 24.1895 36.9973 23.7798 37.1082 23.2344C37.1249 23.1492 37.1396 23.0603 37.1488 22.9716C37.158 22.8845 37.1617 22.803 37.1617 22.7287C37.1617 22.4114 37.0794 22.165 36.9139 21.991C36.7494 21.8152 36.5156 21.7283 36.2133 21.7283C35.8137 21.7283 35.4882 21.8658 35.2332 22.1414C34.9759 22.417 34.7938 22.8338 34.6791 23.3884C34.6634 23.4735 34.6505 23.5588 34.6386 23.6421C34.6294 23.7273 34.6266 23.807 34.6284 23.8795C34.6284 24.1949 34.7107 24.4378 34.8762 24.6099C35.0406 24.7822 35.2735 24.8673 35.5798 24.8673C35.9811 24.8673 36.3066 24.7314 36.5608 24.4595" fill="#DADADA"/>
<path fill-rule="evenodd" clip-rule="evenodd" d="M47.9058 29.4908L48.2536 28.2911H50.0122L49.9363 28.7313C49.9363 28.7313 50.835 28.2911 51.4821 28.2911C52.1295 28.2911 53.6567 28.2911 53.6567 28.2911L53.3111 29.4908H52.969L51.3286 35.1493H51.6707L51.3453 36.273H51.0032L50.8608 36.7605H49.1578L49.2998 36.273H45.9399L46.2674 35.1493H46.604L48.2459 29.4908H47.9058H47.9058ZM49.8031 29.4908L49.3555 31.0222C49.3555 31.0222 50.1213 30.7342 50.7814 30.6526C50.9272 30.1179 51.1178 29.4908 51.1178 29.4908H49.8031L49.8031 29.4908ZM49.1482 31.7401L48.6991 33.3441C48.6991 33.3441 49.5478 32.9345 50.1302 32.9C50.2984 32.2801 50.4669 31.7401 50.4669 31.7401H49.1482V31.7401ZM49.4774 35.1493L49.814 33.9857H48.5013L48.1629 35.1493H49.4774V35.1493ZM53.7307 28.2168H55.384L55.4542 28.8147C55.4432 28.9669 55.5355 29.0396 55.7316 29.0396H56.0237L55.7281 30.0526H54.5129C54.0489 30.0762 53.8103 29.9023 53.7881 29.527L53.7307 28.2168V28.2168ZM53.2463 30.3898H58.6017L58.2874 31.4774H56.5823L56.29 32.4885H57.9933L57.6771 33.5742H55.7799L55.3508 34.2105H56.2793L56.4938 35.4846C56.5194 35.6114 56.6341 35.6731 56.8302 35.6731H57.1185L56.8155 36.7223H55.7946C55.2657 36.7478 54.9922 36.5738 54.9698 36.1987L54.7238 35.0351L53.8788 36.273C53.679 36.6227 53.372 36.7859 52.958 36.7605H51.399L51.7023 35.711H52.1887C52.3885 35.711 52.5547 35.624 52.7044 35.4482L54.0269 33.5742H52.3218L52.6378 32.4885H54.4871L54.7812 31.4774H52.9301L53.2463 30.3898V30.3898Z" fill="#DADADA"/>
<path fill-rule="evenodd" clip-rule="evenodd" d="M25.0538 20.7243H26.3547L26.2059 21.4673L26.3926 21.2553C26.8143 20.8131 27.3265 20.5938 27.9313 20.5938C28.4786 20.5938 28.8734 20.7497 29.1212 21.0632C29.3653 21.3768 29.4319 21.81 29.3164 22.3664L28.5997 25.8715H27.2628L27.91 22.6944C27.9766 22.3664 27.9582 22.1217 27.8553 21.9639C27.7538 21.8063 27.5595 21.7284 27.2794 21.7284C26.9354 21.7284 26.646 21.8334 26.4102 22.0419C26.1735 22.2521 26.0173 22.544 25.9405 22.9155L25.3441 25.8715H24.0044L25.0538 20.7243" fill="#DADADA"/>
<path fill-rule="evenodd" clip-rule="evenodd" d="M39.9721 20.7243H41.2741L41.1263 21.4673L41.3109 21.2553C41.7329 20.8131 42.2469 20.5938 42.8498 20.5938C43.3971 20.5938 43.7927 20.7497 44.0386 21.0632C44.2811 21.3768 44.3513 21.81 44.2329 22.3664L43.5191 25.8715H42.1802L42.8276 22.6944C42.8941 22.3664 42.8756 22.1217 42.7739 21.9639C42.6684 21.8063 42.4778 21.7284 42.1989 21.7284C41.8548 21.7284 41.5664 21.8334 41.3278 22.0419C41.091 22.2521 40.934 22.544 40.8601 22.9155L40.2609 25.8715H38.9229L39.9721 20.7243" fill="#DADADA"/>
<path fill-rule="evenodd" clip-rule="evenodd" d="M46.408 17.5352H50.1879C50.9146 17.5352 51.4767 17.6966 51.8631 18.0136C52.2477 18.3345 52.4403 18.7949 52.4403 19.3948V19.4128C52.4403 19.5269 52.4326 19.6557 52.4216 19.7952C52.403 19.933 52.3788 20.0724 52.3477 20.2175C52.1813 21.0114 51.7946 21.6494 51.1975 22.1333C50.5981 22.6154 49.8883 22.8583 49.071 22.8583H47.0439L46.4172 25.8724H44.6621L46.408 17.5352M47.3528 21.4084H49.034C49.4722 21.4084 49.8198 21.3086 50.0733 21.1111C50.3248 20.9118 50.4913 20.6073 50.5836 20.1941C50.5983 20.1178 50.6075 20.049 50.6187 19.9856C50.6244 19.9259 50.6316 19.8659 50.6316 19.8081C50.6316 19.5126 50.5246 19.2987 50.3099 19.1646C50.0954 19.0285 49.7591 18.9634 49.2928 18.9634H47.8651L47.3528 21.4084" fill="#DADADA"/>
<path fill-rule="evenodd" clip-rule="evenodd" d="M60.2955 26.8672C59.7406 28.0234 59.2119 28.6975 58.9014 29.0111C58.5904 29.3211 57.9748 30.0425 56.4917 29.988L56.6193 29.1055C57.8674 28.7285 58.5424 27.0301 58.927 26.278L58.4685 20.7392L59.4338 20.7266H60.2437L60.3308 24.201L61.8488 20.7266H63.3856L60.2955 26.8672" fill="#DADADA"/>
<path fill-rule="evenodd" clip-rule="evenodd" d="M55.9979 21.1441L55.3874 21.5556C54.7494 21.0663 54.167 20.7636 53.0429 21.2746C51.5114 21.9705 50.2318 27.3082 54.4481 25.5501L54.6885 25.8292L56.3472 25.8709L57.4365 21.0208L55.9979 21.1441M55.0549 23.7957C54.7884 24.566 54.1932 25.0753 53.7272 24.9303C53.2612 24.7889 53.0948 24.0458 53.3647 23.2737C53.6309 22.5016 54.2301 21.9942 54.6923 22.1391C55.1584 22.2805 55.3266 23.0236 55.0549 23.7957" fill="#DADADA"/>
<path fill-rule="evenodd" clip-rule="evenodd" d="M50.5979 7.81605L44.8062 7.80469L50.5648 7.82905C50.5757 7.82905 50.5867 7.81605 50.5979 7.81605" fill="white"/>
<path fill-rule="evenodd" clip-rule="evenodd" d="M44.8064 7.83653L34.5108 7.80078C34.4849 7.80078 34.458 7.81215 34.4312 7.82353L44.8064 7.83653" fill="white"/>
</svg>
