<svg width="147" height="33" viewBox="0 0 147 33" fill="none" xmlns="http://www.w3.org/2000/svg">
<path fill-rule="evenodd" clip-rule="evenodd" d="M35.5164 8.27566L14.2906 20.6274L14.164 20.715C13.9906 20.7979 13.8009 20.8412 13.6087 20.8417C13.3889 20.8403 13.1735 20.7799 12.985 20.6668C12.7965 20.5537 12.6419 20.392 12.5372 20.1988L12.4593 20.0234L9.07912 12.6689C9.05961 12.5856 9.05961 12.4989 9.07912 12.4156C9.07646 12.3364 9.08995 12.2575 9.11874 12.1837C9.14754 12.1098 9.19105 12.0426 9.24663 11.9861C9.30221 11.9297 9.3687 11.8851 9.44205 11.8551C9.5154 11.8251 9.59409 11.8103 9.67332 11.8117C9.81201 11.8193 9.9463 11.8629 10.063 11.9383L14.0373 14.734C14.3501 14.9212 14.7056 15.0252 15.0699 15.036C15.2879 15.0329 15.5031 14.9865 15.7031 14.8996L34.328 6.56123C32.4311 4.43881 30.0961 2.75346 27.4842 1.6216C24.8723 0.489733 22.0459 -0.061672 19.2001 0.00547261C9.04015 0.00547261 0.750488 6.93139 0.750488 15.4841C0.809583 17.7969 1.41706 20.0627 2.52292 22.0949C3.62879 24.1271 5.20143 25.8677 7.11142 27.1734C7.26533 27.2863 7.39172 27.4326 7.48113 27.6013C7.57053 27.77 7.62063 27.9567 7.62769 28.1475C7.62085 28.2814 7.5912 28.4132 7.54003 28.5371C7.24779 29.6963 6.73152 31.5861 6.73152 31.6738C6.67915 31.8277 6.64961 31.9885 6.64385 32.1511C6.64248 32.2303 6.65724 32.309 6.68724 32.3823C6.71723 32.4557 6.76183 32.5222 6.81832 32.5778C6.87481 32.6333 6.94201 32.6769 7.01584 32.7057C7.08967 32.7344 7.16859 32.7479 7.24779 32.7453C7.3737 32.7497 7.49625 32.7042 7.58873 32.6186L11.6021 30.2516C11.8973 30.0729 12.2317 29.9692 12.5762 29.9496C12.7637 29.9605 12.9497 29.9898 13.1314 30.0373C15.0859 30.6134 17.1138 30.9021 19.1514 30.8945C29.3211 30.8945 37.601 23.9783 37.601 15.4159C37.5787 12.889 36.8571 10.4176 35.5164 8.27566Z" fill="white"/>
<path d="M95.8333 10.9941H81.9912V12.241H95.8333V10.9941Z" fill="white"/>
<path d="M95.8333 14.8613H81.9912V16.1959H95.8333V14.8613Z" fill="white"/>
<path fill-rule="evenodd" clip-rule="evenodd" d="M82.332 26.3834H95.4435V18.8633H82.332V26.3834ZM83.6568 20.1101H94.1285V25.1365H83.6568V20.1101Z" fill="white"/>
<path fill-rule="evenodd" clip-rule="evenodd" d="M73.75 15.338L74.4708 16.6239C75.2404 15.4647 76.0586 14.0912 76.8671 12.669V27.2806H78.1919V9.87328C78.9878 8.12638 79.671 6.33035 80.2376 4.49621L79.0004 3.76562C77.8806 7.87911 76.1079 11.7862 73.75 15.338Z" fill="white"/>
<path fill-rule="evenodd" clip-rule="evenodd" d="M123.985 15.338L124.706 16.6239C125.475 15.4647 126.284 14.0912 127.102 12.669V27.2806H128.427V9.87328C129.223 8.12638 129.906 6.33035 130.472 4.49621L129.235 3.76562C128.115 7.87911 126.343 11.7862 123.985 15.338Z" fill="white"/>
<path fill-rule="evenodd" clip-rule="evenodd" d="M90.0184 6.47353C89.9308 6.25922 89.6775 5.69424 89.3755 5.09029C89.0735 4.48635 88.869 4.01877 88.7326 3.7168L87.4955 4.44738C87.9241 5.26563 88.3137 6.03518 88.6547 6.76576C88.6921 6.83597 88.7184 6.91154 88.7326 6.9898H80.667V8.31459H97.2853V6.9898H89.171L90.0184 6.47353Z" fill="white"/>
<path fill-rule="evenodd" clip-rule="evenodd" d="M61.5738 5.95825H60.3367V10.3515H57.9891V4.11719H56.752V10.3515H54.3167V5.95825H53.0796V11.5983H61.5738V5.95825Z" fill="white"/>
<path d="M60.9801 14.043H53.46V15.2898H60.9801V14.043Z" fill="white"/>
<path fill-rule="evenodd" clip-rule="evenodd" d="M62.684 21.8745L62.0898 20.8419L60.1416 22.4784V17.793H53.7612V19.6827C53.9268 22.2641 53.2936 24.1149 51.813 25.1865L52.4949 26.3943H52.5436C53.4447 25.6518 54.1471 24.6968 54.5875 23.6153C55.0279 22.5339 55.1925 21.3599 55.0665 20.199V19.0788H58.8461V21.8355C58.8461 22.8096 58.7584 23.1213 58.4174 23.5597L59.187 24.8845C59.8786 24.3292 60.9891 23.3746 62.5672 21.9622L62.684 21.8745Z" fill="white"/>
<path fill-rule="evenodd" clip-rule="evenodd" d="M52.5241 4.4963L51.3649 3.80469C50.2686 6.10762 48.7823 8.20361 46.9717 10L47.7412 11.2956C49.7051 9.31308 51.3219 7.01465 52.5241 4.4963Z" fill="white"/>
<path fill-rule="evenodd" clip-rule="evenodd" d="M52.3883 10.9065L51.1999 10.2148C50.0935 12.9808 48.5475 15.5498 46.6216 17.8226L47.3132 19.0305C48.0438 18.1636 48.7744 17.2674 49.4562 16.3225V27.1546H50.6934V14.3061C51.3012 13.2203 51.8413 12.098 52.3104 10.9454L52.3883 10.9065Z" fill="white"/>
<path fill-rule="evenodd" clip-rule="evenodd" d="M66.3573 3.90234H65.0812C64.4106 7.3046 63.1829 10.5728 61.4478 13.5752L62.2173 14.9487L62.7434 13.7408C62.9577 13.3512 63.1233 13.059 63.2596 12.7667C63.4907 15.5394 64.1683 18.2564 65.2663 20.8129C64.141 22.651 62.7266 24.2956 61.0776 25.6834L61.7693 26.9887C63.3548 25.5981 64.721 23.9757 65.8215 22.1766C66.8997 23.9412 68.1777 25.5755 69.6303 27.0472L70.3609 25.7613C68.8522 24.3325 67.5593 22.6918 66.5229 20.8908C67.9256 18.3094 68.7828 14.5201 69.1238 9.62036H70.5752V8.41246H65.1689C65.6969 6.94698 66.0946 5.43775 66.3573 3.90234ZM68.1107 9.747C67.9889 13.061 67.3105 16.3309 66.104 19.4199C65.1523 16.6549 64.5502 13.7817 64.3117 10.8672C64.4421 10.4837 64.5983 10.1094 64.7792 9.747H68.1107Z" fill="white"/>
<path fill-rule="evenodd" clip-rule="evenodd" d="M111.847 3.58984H110.474V6.98948H100.021V8.32401H110.474V12.7562H103.655V13.9544C104.492 15.7317 105.552 17.3947 106.811 18.9028C107.753 20.0556 108.796 21.1216 109.928 22.0882C107.023 23.8936 103.81 25.1484 100.45 25.7898L101.22 27.1633C104.679 26.3089 107.971 24.8834 110.961 22.9454C113.748 24.966 116.916 26.4008 120.273 27.1633L120.828 26.1307C120.828 26.1307 119.377 25.7411 117.156 24.8839C115.295 24.1598 113.518 23.2355 111.857 22.1271C114.844 19.9172 117.141 16.9038 118.481 13.4381L117.37 12.7952H111.691V8.32401H122.28V6.98948H111.847V3.58984ZM117.059 13.9154C115.782 16.8598 113.694 19.3803 111.039 21.1822C108.514 19.2511 106.467 16.7646 105.058 13.9154H117.059Z" fill="white"/>
<path fill-rule="evenodd" clip-rule="evenodd" d="M143.155 9.61062V3.90234H141.84V9.65933H130.813V10.9939H141.84V23.5112C141.84 24.8846 140.934 25.5373 139.405 25.5373H138.636V26.8718H139.785C140.257 26.9178 140.733 26.8644 141.182 26.7151C141.632 26.5657 142.045 26.3238 142.396 26.0049C142.693 25.6673 142.914 25.2702 143.045 24.8401C143.176 24.4101 143.214 23.9569 143.155 23.5112V10.9452H146.75V9.61062H143.155Z" fill="white"/>
<path fill-rule="evenodd" clip-rule="evenodd" d="M133.716 15.2014C134.485 16.7989 135.382 18.7277 136.414 21.046L137.739 20.2765C137.008 18.8153 136.073 16.8769 134.914 14.5098L133.716 15.2014Z" fill="white"/>
</svg>
