<?xml version="1.0" encoding="utf-8"?>
<!-- Generator: Adobe Illustrator 27.5.0, SVG Export Plug-In . SVG Version: 6.00 Build 0)  -->
<svg version="1.1" id="圖層_1" xmlns="http://www.w3.org/2000/svg" xmlns:xlink="http://www.w3.org/1999/xlink" x="0px" y="0px"
	 viewBox="0 0 24 24" style="enable-background:new 0 0 24 24;" xml:space="preserve">
<style type="text/css">
	.st0{fill:#FFFFFF;}
</style>
<g>
	<path class="st0" d="M17.7,19H19V5h-1.3V19z M7,14c0.3,0,0.5-0.1,0.7-0.3C7.9,13.5,8,13.3,8,13s-0.1-0.5-0.3-0.7
		C7.5,12.1,7.3,12,7,12s-0.5,0.1-0.7,0.3C6.1,12.5,6,12.7,6,13s0.1,0.5,0.3,0.7C6.5,13.9,6.7,14,7,14z M7,17c0.3,0,0.5-0.1,0.7-0.3
		C7.9,16.5,8,16.3,8,16c0-0.3-0.1-0.5-0.3-0.7C7.5,15.1,7.3,15,7,15s-0.5,0.1-0.7,0.3C6.1,15.5,6,15.7,6,16c0,0.3,0.1,0.5,0.3,0.7
		C6.5,16.9,6.7,17,7,17z M7.3,11h5.4c0.4,0,0.7-0.1,0.9-0.4C13.9,10.4,14,10,14,9.7V8.3c0-0.4-0.1-0.7-0.4-0.9C13.4,7.1,13,7,12.7,7
		H7.3C7,7,6.6,7.1,6.4,7.4C6.1,7.6,6,8,6,8.3v1.4c0,0.4,0.1,0.7,0.4,0.9C6.6,10.9,7,11,7.3,11z M10,14c0.3,0,0.5-0.1,0.7-0.3
		S11,13.3,11,13s-0.1-0.5-0.3-0.7S10.3,12,10,12s-0.5,0.1-0.7,0.3S9,12.7,9,13s0.1,0.5,0.3,0.7S9.7,14,10,14z M10,17
		c0.3,0,0.5-0.1,0.7-0.3S11,16.3,11,16c0-0.3-0.1-0.5-0.3-0.7S10.3,15,10,15s-0.5,0.1-0.7,0.3S9,15.7,9,16c0,0.3,0.1,0.5,0.3,0.7
		C9.5,16.9,9.7,17,10,17z M13,14c0.3,0,0.5-0.1,0.7-0.3S14,13.3,14,13s-0.1-0.5-0.3-0.7S13.3,12,13,12s-0.5,0.1-0.7,0.3
		S12,12.7,12,13s0.1,0.5,0.3,0.7S12.7,14,13,14z M13,17c0.3,0,0.5-0.1,0.7-0.3S14,16.3,14,16c0-0.3-0.1-0.5-0.3-0.7S13.3,15,13,15
		s-0.5,0.1-0.7,0.3S12,15.7,12,16c0,0.3,0.1,0.5,0.3,0.7S12.7,17,13,17z M17.7,21.6c-0.4,0-0.8-0.1-1.2-0.3
		c-0.4-0.2-0.7-0.4-0.9-0.7H5c-0.8,0-1.4-0.3-1.9-0.8s-0.8-1.1-0.8-1.9V6c0-0.8,0.3-1.4,0.8-1.9S4.3,3.3,5,3.3h10.6
		c0.2-0.3,0.5-0.5,0.9-0.7s0.8-0.3,1.2-0.3H19c0.8,0,1.4,0.3,1.9,0.8s0.8,1.1,0.8,1.9v14c0,0.8-0.3,1.4-0.8,1.9s-1.1,0.8-1.9,0.8
		L17.7,21.6L17.7,21.6z"/>
</g>
</svg>
