<?xml version="1.0" encoding="utf-8"?>
<!-- Generator: Adobe Illustrator 27.5.0, SVG Export Plug-In . SVG Version: 6.00 Build 0)  -->
<svg version="1.1" id="圖層_1" xmlns="http://www.w3.org/2000/svg" xmlns:xlink="http://www.w3.org/1999/xlink" x="0px" y="0px"
	 viewBox="0 0 24 24" style="enable-background:new 0 0 24 24;" xml:space="preserve">
<style type="text/css">
	.st0{fill:#FFFFFF;}
</style>
<g>
	<path class="st0" d="M12,13.8c0.6,0,1.1-0.2,1.5-0.6c0.4-0.4,0.6-0.9,0.6-1.5s-0.2-1.1-0.6-1.5S12.6,9.4,12,9.4s-1.1,0.2-1.5,0.6
		c-0.4,0.4-0.6,0.9-0.6,1.5s0.2,1.1,0.6,1.5C10.9,13.6,11.4,13.8,12,13.8z M7.8,18.1h8.3v-0.7c0-0.4-0.1-0.8-0.4-1.2
		c-0.2-0.4-0.6-0.6-1-0.8c-0.5-0.2-0.9-0.3-1.4-0.4c-0.5-0.1-1-0.2-1.5-0.2s-1,0.1-1.5,0.2c-0.5,0.1-0.9,0.3-1.3,0.4
		c-0.4,0.2-0.7,0.5-1,0.8c0,0.4-0.2,0.8-0.2,1.2V18.1z M18.5,22.4H5.4c-0.5,0-0.9-0.2-1.3-0.6c-0.4-0.4-0.6-0.8-0.6-1.3V3.4
		c0-0.5,0.2-0.9,0.6-1.3C4.5,1.8,5,1.6,5.4,1.6h8.7l6.2,6.2v12.8c0,0.5-0.2,0.9-0.6,1.3C19.5,22.2,19,22.4,18.5,22.4z"/>
</g>
</svg>
