<?xml version="1.0" encoding="utf-8"?>
<!-- Generator: Adobe Illustrator 27.5.0, SVG Export Plug-In . SVG Version: 6.00 Build 0)  -->
<svg version="1.1" id="圖層_1" xmlns="http://www.w3.org/2000/svg" xmlns:xlink="http://www.w3.org/1999/xlink" x="0px" y="0px"
	 viewBox="0 0 24 24" style="enable-background:new 0 0 24 24;" xml:space="preserve">
<style type="text/css">
	.st0{fill:#FFFFFF;}
</style>
<g>
	<path class="st0" d="M5.7,21.4c-0.5,0-1-0.2-1.3-0.5s-0.5-0.8-0.5-1.3v-9.1C3.2,10.1,2.6,9.6,2.2,9S1.6,7.6,1.6,6.6
		c0-1.2,0.4-2.1,1.2-2.9s1.7-1.2,2.9-1.2h12.7c1.2,0,2.1,0.4,2.9,1.2s1.2,1.7,1.2,2.9c0,0.9-0.2,1.7-0.6,2.3c-0.4,0.6-1,1.1-1.6,1.5
		v9.1c0,0.5-0.2,1-0.5,1.3c-0.4,0.3-0.8,0.5-1.3,0.5H5.7V21.4z M11.3,18c0.2,0.2,0.4,0.4,0.7,0.4s0.5-0.1,0.8-0.4l4.3-4.3
		c0.2-0.2,0.3-0.4,0.3-0.7s-0.1-0.5-0.3-0.7L12.7,8c-0.2-0.2-0.5-0.3-0.8-0.3S11.4,7.8,11.2,8L7,12.3c-0.2,0.2-0.3,0.5-0.3,0.7
		c0,0.3,0.1,0.5,0.3,0.7L11.3,18z M12,16.2l-3.2-3.1L12,9.9l3.1,3.1L12,16.2z"/>
</g>
</svg>
