<?xml version="1.0" encoding="utf-8"?>
<!-- Generator: Adobe Illustrator 27.5.0, SVG Export Plug-In . SVG Version: 6.00 Build 0)  -->
<svg version="1.1" id="圖層_1" xmlns="http://www.w3.org/2000/svg" xmlns:xlink="http://www.w3.org/1999/xlink" x="0px" y="0px"
	 viewBox="0 0 24 24" style="enable-background:new 0 0 24 24;" xml:space="preserve">
<style type="text/css">
	.st0{fill:#FFFFFF;}
</style>
<path class="st0" d="M15,21c-1.1,0-2-0.9-2-2v-4c0-1.1,0.9-2,2-2h4c1.1,0,2,0.9,2,2v4c0,1.1-0.9,2-2,2H15z M15,11c-1.1,0-2-0.9-2-2
	V5c0-1.1,0.9-2,2-2h4c1.1,0,2,0.9,2,2v4c0,1.1-0.9,2-2,2H15z M5,11c-1.1,0-2-0.9-2-2V5c0-1.1,0.9-2,2-2h4c1.1,0,2,0.9,2,2v4
	c0,1.1-0.9,2-2,2H5z M5,21c-1.1,0-2-0.9-2-2v-4c0-1.1,0.9-2,2-2h4c1.1,0,2,0.9,2,2v4c0,1.1-0.9,2-2,2H5z"/>
</svg>
