<svg width="24" height="24" viewBox="0 0 24 24" fill="none" xmlns="http://www.w3.org/2000/svg">
<mask id="mask0_464_26663" style="mask-type:alpha" maskUnits="userSpaceOnUse" x="0" y="0" width="24" height="24">
<rect width="24" height="24" fill="#D9D9D9"/>
</mask>
<g mask="url(#mask0_464_26663)">
<path d="M4.84999 21.8002C4.09999 21.8002 3.47082 21.546 2.96249 21.0377C2.45415 20.5294 2.19999 19.9002 2.19999 19.1502V5.5252L1.42499 4.7502C1.15832 4.48353 1.02915 4.17103 1.03749 3.8127C1.04582 3.45436 1.18332 3.14186 1.44999 2.8752C1.71665 2.60853 2.02915 2.4752 2.38749 2.4752C2.74582 2.4752 3.05832 2.60853 3.32499 2.8752L21.15 20.7252C21.4167 20.9919 21.55 21.3002 21.55 21.6502C21.55 22.0002 21.4167 22.3085 21.15 22.5752C20.8833 22.8419 20.5708 22.9752 20.2125 22.9752C19.8542 22.9752 19.5417 22.8419 19.275 22.5752L18.475 21.8002H4.84999ZM4.84999 19.1502H15.825L4.84999 8.1752V19.1502ZM21.8 18.5502L19.15 15.9002V8.8502H12.1L5.44999 2.2002H19.15C19.9 2.2002 20.5292 2.45436 21.0375 2.9627C21.5458 3.47103 21.8 4.1002 21.8 4.8502V18.5502Z" fill="#AEAEB2"/>
</g>
</svg>
