<svg width="24" height="24" viewBox="0 0 24 24" fill="none" xmlns="http://www.w3.org/2000/svg">
<mask id="mask0_91_27218" style="mask-type:alpha" maskUnits="userSpaceOnUse" x="0" y="0" width="24" height="24">
<rect width="24" height="24" fill="white"/>
</mask>
<g mask="url(#mask0_91_27218)">
<path d="M11.9999 3.87539C12.2332 3.87539 12.4374 3.78789 12.6124 3.61289C12.7874 3.43789 12.8749 3.23372 12.8749 3.00039C12.8749 2.76706 12.7874 2.56289 12.6124 2.38789C12.4374 2.21289 12.2332 2.12539 11.9999 2.12539C11.7665 2.12539 11.5624 2.21289 11.3874 2.38789C11.2124 2.56289 11.1249 2.76706 11.1249 3.00039C11.1249 3.23372 11.2124 3.43789 11.3874 3.61289C11.5624 3.78789 11.7665 3.87539 11.9999 3.87539ZM18.3282 23.5754C16.9323 23.5754 15.7411 23.0791 14.7546 22.0865C13.7681 21.0939 13.2749 19.9163 13.2749 18.5537C13.2749 17.1578 13.767 15.9625 14.7513 14.9676C15.7355 13.9728 16.9256 13.4754 18.3215 13.4754C19.7007 13.4754 20.8878 13.9717 21.8826 14.9643C22.8774 15.9569 23.3749 17.1511 23.3749 18.547C23.3749 19.9096 22.8786 21.0883 21.886 22.0831C20.8934 23.078 19.7075 23.5754 18.3282 23.5754ZM17.8999 21.8004H18.7999V19.0254H21.5749V18.1254H18.7999V15.3504H17.8999V18.1254H15.1249V19.0254H17.8999V21.8004ZM6.79985 8.47539H17.1999V6.65039H6.79985V8.47539ZM12.3999 21.3254H4.42485C3.90819 21.3254 3.47485 21.1504 3.12485 20.8004C2.77485 20.4504 2.59985 20.0171 2.59985 19.5004V4.37539C2.59985 3.85872 2.77485 3.42539 3.12485 3.07539C3.47485 2.72539 3.90819 2.55039 4.42485 2.55039H9.24985C9.43319 1.96706 9.77485 1.48372 10.2749 1.10039C10.7749 0.717057 11.3499 0.525391 11.9999 0.525391C12.6499 0.525391 13.2249 0.717057 13.7249 1.10039C14.2249 1.48372 14.5665 1.96706 14.7499 2.55039H19.5749C20.0915 2.55039 20.5249 2.72539 20.8749 3.07539C21.2249 3.42539 21.3999 3.85872 21.3999 4.37539V12.7754C20.9332 12.5254 20.4374 12.3337 19.9124 12.2004C19.3874 12.0671 18.8582 12.0004 18.3249 12.0004C18.1382 12.0004 17.9507 12.0115 17.7624 12.0337C17.5742 12.0559 17.3866 12.0865 17.1999 12.1254V11.0254H6.79985V12.8504H15.2499C14.6867 13.129 14.1793 13.4862 13.7275 13.9219C13.2757 14.3576 12.9077 14.8421 12.6235 15.3754H6.79985V17.2004H11.9249C11.8749 17.4301 11.8374 17.6595 11.8124 17.8886C11.7874 18.1177 11.7749 18.3466 11.7749 18.5754C11.7749 19.0587 11.8249 19.5296 11.9249 19.9879C12.0249 20.4462 12.1832 20.8921 12.3999 21.3254Z" fill="white"/>
</g>
</svg>
