<?xml version="1.0" encoding="utf-8"?>
<!-- Generator: Adobe Illustrator 27.5.0, SVG Export Plug-In . SVG Version: 6.00 Build 0)  -->
<svg version="1.1" id="圖層_1" xmlns="http://www.w3.org/2000/svg" xmlns:xlink="http://www.w3.org/1999/xlink" x="0px" y="0px"
	 viewBox="0 0 24 24" style="enable-background:new 0 0 24 24;" xml:space="preserve">
<style type="text/css">
	.st0{fill:#FFFFFF;}
</style>
<g>
	<path class="st0" d="M4.8,21.8c-0.8,0-1.4-0.3-1.9-0.8s-0.8-1.1-0.8-1.9V5.5L1.4,4.8C1.2,4.5,1,4.2,1,3.8s0.1-0.7,0.4-0.9
		c0.3-0.3,0.6-0.4,1-0.4s0.7,0.1,0.9,0.4l17.8,17.9c0.3,0.3,0.4,0.6,0.4,0.9s-0.1,0.7-0.4,0.9c-0.3,0.3-0.6,0.4-0.9,0.4
		c-0.4,0-0.7-0.1-0.9-0.4l-0.8-0.8H4.8z M4.8,19.2h11l-11-11V19.2z M21.8,18.6L19.2,16V8.9h-7L5.4,2.2h13.7c0.8,0,1.4,0.3,1.9,0.8
		s0.8,1.1,0.8,1.9V18.6z"/>
</g>
</svg>
