<svg width="51" height="56" viewBox="0 0 51 56" fill="none" xmlns="http://www.w3.org/2000/svg">
<path d="M9.84581 49.1616V46.3292C9.86092 46.0909 9.82967 45.8519 9.75416 45.628C9.67865 45.4041 9.56061 45.2005 9.40791 45.0307C9.25521 44.861 9.07137 44.729 8.86863 44.6436C8.6659 44.5581 8.44895 44.5212 8.23223 44.5353C7.9486 44.515 7.6652 44.5787 7.41158 44.7199C7.15796 44.861 6.94341 45.0744 6.79028 45.3378C6.65072 45.0823 6.4511 44.8729 6.21244 44.7316C5.97378 44.5904 5.70491 44.5226 5.43415 44.5353C5.19814 44.5223 4.96311 44.5773 4.75235 44.6948C4.54159 44.8124 4.3624 44.9885 4.23252 45.2057V44.6487H3.33984V49.1616H4.24106V46.6596C4.22157 46.5052 4.23342 46.348 4.27573 46.1992C4.31805 46.0505 4.38978 45.9139 4.48579 45.7992C4.5818 45.6846 4.6997 45.5948 4.83102 45.5362C4.96234 45.4777 5.10382 45.4518 5.2453 45.4606C5.83752 45.4606 6.13797 45.8854 6.13797 46.6502V49.1616H7.03919V46.6596C7.02117 46.5055 7.03403 46.3489 7.07689 46.2009C7.11974 46.0528 7.19155 45.9169 7.28725 45.8026C7.38296 45.6884 7.50024 45.5985 7.63088 45.5394C7.76151 45.4803 7.90232 45.4534 8.04341 45.4606C8.65277 45.4606 8.94459 45.8854 8.94459 46.6502V49.1616H9.84581ZM23.1839 44.6487H21.7248V43.2796H20.8236V44.6487H19.991V45.5456H20.8236V47.6038C20.8236 48.6517 21.1927 49.2749 22.2484 49.2749C22.6428 49.2762 23.0295 49.1551 23.3641 48.9256L23.1067 48.0853C22.8673 48.2424 22.5956 48.3301 22.317 48.3402C21.8707 48.3402 21.7248 48.038 21.7248 47.5849V45.5456H23.1839V44.6487ZM30.7971 44.5353C30.5795 44.5283 30.3641 44.5859 30.1738 44.7023C29.9835 44.8186 29.8252 44.9892 29.7157 45.1962V44.6487H28.8316V49.1616H29.7242V46.6313C29.7242 45.8854 30.016 45.47 30.5997 45.47C30.7907 45.4671 30.9802 45.5056 31.1576 45.5833L31.4322 44.658C31.2284 44.5778 31.0136 44.5363 30.7971 44.5353ZM19.2872 45.0074C18.782 44.6769 18.201 44.5131 17.6135 44.5353C16.5749 44.5353 15.9055 45.0829 15.9055 45.9798C15.9055 46.7163 16.4033 47.1695 17.3216 47.3111L17.7422 47.3772C18.2314 47.4526 18.4632 47.5943 18.4632 47.8492C18.4632 48.1985 18.137 48.3969 17.5277 48.3969C17.0375 48.4124 16.5568 48.2461 16.1629 47.9247L15.7424 48.6895C16.2623 49.0889 16.8851 49.2942 17.5191 49.2749C18.7035 49.2749 19.3901 48.6612 19.3901 47.802C19.3901 47.0089 18.8495 46.5935 17.9568 46.4519L17.5363 46.3858C17.15 46.3292 16.8411 46.2443 16.8411 45.9421C16.8411 45.6117 17.1328 45.4134 17.6221 45.4134C18.0714 45.4208 18.5115 45.554 18.901 45.8005L19.2872 45.0074ZM43.1996 44.5353C42.982 44.5283 42.7666 44.5859 42.5763 44.7023C42.386 44.8186 42.2277 44.9892 42.1182 45.1962V44.6487H41.2341V49.1616H42.1267V46.6313C42.1267 45.8854 42.4186 45.47 43.0022 45.47C43.1931 45.4671 43.3827 45.5056 43.5602 45.5833L43.8348 44.658C43.6309 44.5778 43.4161 44.5363 43.1996 44.5353ZM31.6983 46.905C31.6864 47.223 31.7352 47.5401 31.8415 47.8361C31.9477 48.132 32.1091 48.4002 32.3153 48.6235C32.5214 48.8467 32.7678 49.02 33.0385 49.1322C33.3092 49.2444 33.5982 49.293 33.887 49.2749C34.4229 49.3045 34.9495 49.1126 35.3633 48.7367L34.9341 47.9436C34.6255 48.2024 34.2493 48.3448 33.8612 48.3496C33.5267 48.3273 33.2126 48.1654 32.9829 47.8969C32.7532 47.6285 32.6253 47.2737 32.6253 46.9051C32.6253 46.5365 32.7532 46.1817 32.9829 45.9133C33.2126 45.6448 33.5267 45.4829 33.8612 45.4606C34.2493 45.4654 34.6255 45.6078 34.9341 45.8666L35.3633 45.0735C34.9495 44.6977 34.4229 44.5057 33.887 44.5353C33.5982 44.5173 33.3092 44.5659 33.0385 44.6781C32.7678 44.7903 32.5215 44.9635 32.3153 45.1867C32.1092 45.4099 31.9478 45.6781 31.8415 45.974C31.7352 46.27 31.6864 46.5871 31.6983 46.905ZM40.0582 46.905V44.6487H39.1656V45.1962C39.0132 44.9802 38.816 44.8075 38.5906 44.6926C38.3651 44.5776 38.1178 44.5237 37.8695 44.5353C37.3164 44.5652 36.7949 44.8279 36.4131 45.269C36.0312 45.7102 35.8182 46.296 35.8182 46.9051C35.8182 47.5143 36.0312 48.1001 36.4131 48.5413C36.7949 48.9824 37.3164 49.2451 37.8695 49.2749C38.1178 49.2866 38.3651 49.2327 38.5906 49.1177C38.8161 49.0027 39.0132 48.8299 39.1656 48.6139V49.1616H40.0582V46.905ZM36.7365 46.905C36.7504 46.6387 36.8348 46.3827 36.9793 46.1685C37.1239 45.9543 37.3223 45.7914 37.55 45.6997C37.7777 45.6081 38.0249 45.5918 38.2609 45.6528C38.497 45.7138 38.7117 45.8495 38.8785 46.0431C39.0453 46.2367 39.157 46.4798 39.1997 46.7423C39.2424 47.0049 39.2143 47.2755 39.1189 47.5207C39.0235 47.7659 38.865 47.9751 38.6628 48.1224C38.4606 48.2697 38.2237 48.3487 37.9812 48.3496C37.8112 48.3521 37.6426 48.3159 37.486 48.2432C37.3294 48.1705 37.1881 48.0629 37.0712 47.9272C36.9543 47.7915 36.8642 47.6306 36.8066 47.4547C36.749 47.2787 36.7251 47.0916 36.7365 46.905ZM25.9649 44.5353C25.4082 44.5676 24.8845 44.8357 24.5037 45.2835C24.1229 45.7312 23.9145 46.3238 23.9222 46.9369C23.93 47.55 24.1533 48.136 24.5454 48.5719C24.9374 49.0078 25.4677 49.2598 26.0249 49.2749C26.6373 49.2986 27.2362 49.0734 27.7072 48.6423L27.2694 47.9153C26.9305 48.2141 26.5107 48.3802 26.0764 48.3874C25.7815 48.4147 25.4884 48.3146 25.2593 48.1084C25.0303 47.9023 24.8831 47.6061 24.849 47.2827H27.8961C27.9046 47.16 27.9132 47.0373 27.9132 46.905C27.9046 45.4983 27.115 44.5353 25.9649 44.5353ZM25.9477 45.4134C26.2173 45.4076 26.478 45.5196 26.6727 45.7249C26.8673 45.9302 26.9801 46.212 26.9862 46.5086H24.8576C24.8733 46.2056 24.9961 45.9214 25.1998 45.7167C25.4035 45.512 25.6719 45.4032 25.9477 45.4134ZM48.3409 46.905V42.8359H47.4482V45.1962C47.2959 44.9802 47.0987 44.8075 46.8732 44.6926C46.6477 44.5776 46.4005 44.5237 46.1522 44.5353C45.5991 44.5651 45.0776 44.8278 44.6957 45.269C44.3138 45.7101 44.1008 46.296 44.1008 46.9051C44.1008 47.5143 44.3138 48.1001 44.6957 48.5413C45.0776 48.9824 45.5991 49.2451 46.1522 49.2749C46.4005 49.2866 46.6477 49.2327 46.8732 49.1177C47.0987 49.0027 47.2959 48.8299 47.4482 48.6139V49.1616H48.3409V46.905ZM49.8289 48.5076C49.8843 48.5072 49.9392 48.5192 49.9903 48.5428C50.0395 48.5653 50.0843 48.598 50.1223 48.639C50.16 48.6799 50.1902 48.7284 50.2112 48.7819C50.2326 48.8369 50.2437 48.8961 50.2437 48.9559C50.2437 49.0157 50.2326 49.0749 50.2112 49.1299C50.1901 49.1832 50.1599 49.2315 50.1223 49.2723C50.0842 49.3132 50.0394 49.346 49.9903 49.3689C49.9393 49.393 49.8844 49.4051 49.8289 49.4047C49.7472 49.4056 49.6671 49.38 49.5986 49.3312C49.5301 49.2823 49.4762 49.2123 49.4436 49.1299C49.4222 49.0749 49.4112 49.0157 49.4112 48.9559C49.4112 48.8961 49.4222 48.8369 49.4436 48.7819C49.4645 48.7285 49.4946 48.6799 49.5321 48.639C49.5701 48.5977 49.6151 48.565 49.6645 48.5428C49.7166 48.5191 49.7725 48.5071 49.8289 48.5076ZM49.8289 49.3058C49.8712 49.3061 49.9131 49.2968 49.9519 49.2783C49.9892 49.2605 50.023 49.2351 50.0518 49.2035C50.111 49.1377 50.1443 49.0488 50.1443 48.9561C50.1443 48.8635 50.111 48.7746 50.0518 48.7087C50.0231 48.6772 49.9892 48.652 49.9519 48.6346C49.913 48.6164 49.8711 48.6072 49.8289 48.6076C49.7858 48.6073 49.7432 48.6164 49.7035 48.6346C49.6656 48.6518 49.6311 48.6769 49.602 48.7087C49.5428 48.7745 49.5095 48.8634 49.5095 48.9561C49.5095 49.0488 49.5428 49.1377 49.602 49.2035C49.6312 49.2354 49.6656 49.2608 49.7035 49.2783C49.7431 49.2967 49.7858 49.3061 49.8289 49.3058ZM49.8529 48.7461C49.893 48.7432 49.9328 48.7559 49.9654 48.7819C49.9783 48.7936 49.9887 48.8085 49.9955 48.8254C50.0023 48.8423 50.0055 48.8607 50.0048 48.8792C50.0053 48.895 50.0027 48.9108 49.9973 48.9254C49.9919 48.9401 49.9837 48.9533 49.9733 48.9643C49.9485 48.9886 49.917 49.0031 49.8839 49.0056L50.0078 49.1628H49.9109L49.796 49.0067H49.759V49.1628H49.678V48.7461H49.8529ZM49.759 48.8242V48.9353H49.8519C49.8698 48.9363 49.8875 48.9314 49.9029 48.9215C49.9092 48.9169 49.9142 48.9105 49.9175 48.9031C49.9209 48.8957 49.9223 48.8874 49.9218 48.8792C49.9223 48.8711 49.9207 48.863 49.9174 48.8558C49.9141 48.8485 49.9091 48.8423 49.9029 48.8379C49.8875 48.828 49.8698 48.8233 49.8519 48.8242H49.759ZM45.0193 46.905C45.0331 46.6387 45.1175 46.3827 45.2621 46.1686C45.4066 45.9544 45.605 45.7915 45.8327 45.6998C46.0605 45.6082 46.3076 45.5919 46.5436 45.6529C46.7797 45.7139 46.9944 45.8496 47.1611 46.0432C47.3279 46.2368 47.4396 46.4799 47.4823 46.7425C47.525 47.005 47.4969 47.2756 47.4015 47.5208C47.3061 47.766 47.1475 47.9752 46.9454 48.1224C46.7432 48.2697 46.5062 48.3487 46.2638 48.3496C46.0938 48.3521 45.9252 48.3159 45.7686 48.2432C45.612 48.1705 45.4708 48.0629 45.3539 47.9271C45.2369 47.7914 45.1469 47.6305 45.0893 47.4546C45.0317 47.2787 45.0078 47.0916 45.0193 46.905ZM14.8755 46.905V44.6487H13.9828V45.1962C13.8305 44.9802 13.6333 44.8075 13.4078 44.6926C13.1823 44.5776 12.9351 44.5237 12.6868 44.5353C12.1337 44.5652 11.6122 44.8279 11.2303 45.269C10.8485 45.7102 10.6355 46.296 10.6355 46.9051C10.6355 47.5143 10.8485 48.1001 11.2303 48.5413C11.6122 48.9824 12.1337 49.2451 12.6868 49.2749C12.9351 49.2866 13.1823 49.2327 13.4078 49.1177C13.6333 49.0027 13.8305 48.8299 13.9828 48.6139V49.1616H14.8755V46.905ZM11.5539 46.905C11.5678 46.6387 11.6522 46.3827 11.7967 46.1686C11.9413 45.9544 12.1396 45.7915 12.3674 45.6998C12.5951 45.6082 12.8422 45.5919 13.0783 45.6529C13.3143 45.7139 13.529 45.8496 13.6958 46.0432C13.8626 46.2368 13.9742 46.4799 14.0169 46.7425C14.0596 47.005 14.0315 47.2756 13.9361 47.5208C13.8407 47.766 13.6821 47.9752 13.48 48.1225C13.2778 48.2697 13.0409 48.3487 12.7984 48.3496C12.6284 48.3521 12.4598 48.3159 12.3032 48.2432C12.1466 48.1705 12.0054 48.0629 11.8885 47.9271C11.7716 47.7914 11.6815 47.6305 11.6239 47.4546C11.5663 47.2787 11.5425 47.0916 11.5539 46.905Z" fill="#231F20"/>
<path d="M32.5104 10.2559H18.9902V36.9816H32.5104V10.2559Z" fill="#FF5F00"/>
<path d="M19.8487 23.6198C19.8466 21.046 20.3768 18.5053 21.3993 16.1901C22.4217 13.875 23.9096 11.8461 25.7503 10.257C23.4709 8.28611 20.7333 7.06047 17.8506 6.72012C14.9679 6.37977 12.0562 6.93846 9.44848 8.33231C6.84075 9.72617 4.64212 11.899 3.10392 14.6023C1.56572 17.3057 0.75 20.4306 0.75 23.6198C0.75 26.8091 1.56572 29.934 3.10392 32.6374C4.64212 35.3407 6.84075 37.5135 9.44848 38.9074C12.0562 40.3013 14.9679 40.8599 17.8506 40.5196C20.7333 40.1792 23.4709 38.9536 25.7503 36.9827C23.9096 35.3936 22.4217 33.3647 21.3993 31.0496C20.3768 28.7344 19.8466 26.1937 19.8487 23.6198Z" fill="#EB001B"/>
<path d="M50.75 23.6198C50.7501 26.809 49.9345 29.9339 48.3964 32.6373C46.8583 35.3407 44.6597 37.5135 42.052 38.9074C39.4444 40.3012 36.5328 40.8599 33.6501 40.5196C30.7674 40.1792 28.0299 38.9536 25.7505 36.9827C27.5896 35.392 29.0763 33.3628 30.0986 31.048C31.1209 28.7332 31.6521 26.1933 31.6521 23.6198C31.6521 21.0464 31.1209 18.5065 30.0986 16.1917C29.0763 13.8769 27.5896 11.8477 25.7505 10.257C28.0299 8.28611 30.7674 7.06046 33.6501 6.72012C36.5328 6.37977 39.4444 6.93847 42.052 8.33234C44.6597 9.72621 46.8583 11.899 48.3964 14.6024C49.9345 17.3058 50.7501 20.4307 50.75 23.6198Z" fill="#F79E1B"/>
<path d="M49.276 34.1519V33.6047H49.4766V33.4933H48.9658V33.6047H49.1665V34.1519H49.276ZM50.2678 34.1519V33.4922H50.1112L49.9311 33.946L49.7509 33.4922H49.5943V34.1519H49.7048V33.6543L49.8737 34.0833H49.9884L50.1573 33.6532V34.1519H50.2678Z" fill="#F79E1B"/>
</svg>
