<svg width="24" height="24" viewBox="0 0 24 24" fill="none" xmlns="http://www.w3.org/2000/svg">
<mask id="mask0_464_26648" style="mask-type:alpha" maskUnits="userSpaceOnUse" x="0" y="0" width="24" height="24">
<rect width="24" height="24" fill="#AEAEB2"/>
</mask>
<g mask="url(#mask0_464_26648)">
<path d="M5.69985 21.3996C5.18319 21.3996 4.74985 21.2288 4.39985 20.8871C4.04985 20.5454 3.87485 20.1079 3.87485 19.5746V10.4746C3.19152 10.0913 2.64152 9.59128 2.22485 8.97461C1.80819 8.35794 1.59985 7.58294 1.59985 6.64961C1.59985 5.49961 1.98735 4.53711 2.76235 3.76211C3.53735 2.98711 4.49985 2.59961 5.64985 2.59961H18.3499C19.4999 2.59961 20.4624 2.98711 21.2374 3.76211C22.0124 4.53711 22.3999 5.49961 22.3999 6.64961C22.3999 7.58294 22.1915 8.35794 21.7749 8.97461C21.3582 9.59128 20.8165 10.0913 20.1499 10.4746V19.5746C20.1499 20.1079 19.9749 20.5454 19.6249 20.8871C19.2749 21.2288 18.8415 21.3996 18.3249 21.3996H5.69985ZM11.2999 18.0246C11.4999 18.2579 11.7332 18.3746 11.9999 18.3746C12.2665 18.3746 12.5165 18.2579 12.7499 18.0246L17.0499 13.7246C17.2499 13.5246 17.3499 13.2954 17.3499 13.0371C17.3499 12.7788 17.2499 12.5329 17.0499 12.2996L12.7499 7.99961C12.5332 7.81628 12.2832 7.72461 11.9999 7.72461C11.7165 7.72461 11.4832 7.81628 11.2999 7.99961L6.99985 12.2996C6.78319 12.5163 6.67069 12.7579 6.66235 13.0246C6.65402 13.2913 6.76652 13.5246 6.99985 13.7246L11.2999 18.0246ZM12.0249 16.2496L8.87485 13.0996L12.0249 9.94961L15.1749 13.0996L12.0249 16.2496Z" fill="#AEAEB2"/>
</g>
</svg>
