<?xml version="1.0" encoding="utf-8"?>
<!-- Generator: Adobe Illustrator 27.5.0, SVG Export Plug-In . SVG Version: 6.00 Build 0)  -->
<svg version="1.1" id="圖層_1" xmlns="http://www.w3.org/2000/svg" xmlns:xlink="http://www.w3.org/1999/xlink" x="0px" y="0px"
	 viewBox="0 0 24 24" style="enable-background:new 0 0 24 24;" xml:space="preserve">
<style type="text/css">
	.st0{fill:#FFFFFF;}
</style>
<g>
	<path class="st0" d="M6,19c-0.8,0-1.5-0.3-2.1-0.9S3,16.8,3,16H1V7c0-0.6,0.2-1,0.6-1.4S2.5,5,3,5h14l6,6v5h-2
		c0,0.8-0.3,1.5-0.9,2.1S18.8,19,18,19s-1.5-0.3-2.1-0.9S15,16.8,15,16H9c0,0.8-0.3,1.5-0.9,2.1S6.8,19,6,19z M15,10h4l-3-3h-1V10z
		 M9,10h4V7H9V10z M3,10h4V7H3V10z M6,17.3c0.3,0,0.6-0.1,0.9-0.4c0.2-0.2,0.4-0.5,0.4-0.9s-0.1-0.6-0.4-0.9
		c-0.2-0.2-0.5-0.4-0.9-0.4s-0.6,0.1-0.9,0.4c-0.2,0.2-0.4,0.5-0.4,0.9s0.1,0.6,0.4,0.9C5.4,17.1,5.7,17.3,6,17.3z M18,17.3
		c0.4,0,0.6-0.1,0.9-0.4c0.2-0.2,0.4-0.5,0.4-0.9s-0.1-0.6-0.4-0.9c-0.2-0.2-0.5-0.4-0.9-0.4s-0.6,0.1-0.9,0.4
		c-0.2,0.2-0.4,0.5-0.4,0.9s0.1,0.6,0.4,0.9C17.4,17.1,17.6,17.3,18,17.3z"/>
</g>
</svg>
