<?xml version="1.0" encoding="utf-8"?>
<!-- Generator: Adobe Illustrator 27.5.0, SVG Export Plug-In . SVG Version: 6.00 Build 0)  -->
<svg version="1.1" id="圖層_1" xmlns="http://www.w3.org/2000/svg" xmlns:xlink="http://www.w3.org/1999/xlink" x="0px" y="0px"
	 viewBox="0 0 24 24" style="enable-background:new 0 0 24 24;" xml:space="preserve">
<style type="text/css">
	.st0{fill:#FFFFFF;}
</style>
<g>
	<path class="st0" d="M16.3,16.8H9.4c-0.6,0-1.1,0.3-1.3,0.8s-0.2,1,0.2,1.3c0,0.2,0,0.4,0.1,0.6s0.3,0.4,0.5,0.5l6.4,2.5
		c0.1,0.1,0.3,0.1,0.4,0.1c0.1,0,0.2-0.1,0.3-0.1c0.1,0,0.2-0.2,0.2-0.3c0.1-0.1,0.1-0.2,0.1-0.4V16.8z M10,1.8c1.2,0,2.1,0.4,3,1.2
		s1.2,1.8,1.2,3S13.8,8.1,13,8.9c-0.8,0.8-1.8,1.2-3,1.2S7.9,9.7,7.1,8.9c-0.8-0.8-1.2-1.8-1.2-3s0.4-2.1,1.2-3
		C7.9,2.2,8.8,1.8,10,1.8z M19.3,11.1c0.5,0,1,0.2,1.3,0.6c0.3,0.4,0.5,0.8,0.5,1.3c0,0.4-0.2,0.8-0.5,1.1s-0.7,0.5-1.1,0.6
		l-1.9,0.5H9.4c-0.9,0-1.6,0.3-2.2,0.9s-0.9,1.3-0.9,2.2c0,0.4,0.1,0.7,0.2,1.1s0.3,0.7,0.6,1H2.9v-4.1c0-1.4,0.5-2.7,1.5-3.7
		s2.2-1.5,3.7-1.5C8.1,11.1,19.3,11.1,19.3,11.1z"/>
</g>
</svg>
